<svg xmlns="http://www.w3.org/2000/svg" xmlns:xlink="http://www.w3.org/1999/xlink" width="192" zoomAndPan="magnify" viewBox="0 0 144 38.999999" height="52" preserveAspectRatio="xMidYMid meet" version="1.0"><defs><g/><clipPath id="804398bae3"><path d="M 29.191406 2.011719 L 58 2.011719 L 58 16 L 29.191406 16 Z M 29.191406 2.011719 " clip-rule="nonzero"/></clipPath><clipPath id="721f789adb"><path d="M 63 2.011719 L 85 2.011719 L 85 7 L 63 7 Z M 63 2.011719 " clip-rule="nonzero"/></clipPath><clipPath id="fe50b85549"><path d="M 78 18 L 103.441406 18 L 103.441406 22 L 78 22 Z M 78 18 " clip-rule="nonzero"/></clipPath><clipPath id="6a3b6c19b3"><path d="M 73 18 L 80 18 L 80 24.511719 L 73 24.511719 Z M 73 18 " clip-rule="nonzero"/></clipPath><clipPath id="7394268785"><path d="M 89 22 L 99 22 L 99 24.511719 L 89 24.511719 Z M 89 22 " clip-rule="nonzero"/></clipPath></defs><g clip-path="url(#804398bae3)"><path fill="#000000" d="M 56.304688 2.210938 C 56.839844 2.121094 57.375 2.019531 57.921875 2.011719 C 56.351562 2.257812 54.804688 2.648438 53.324219 3.226562 C 51.957031 3.761719 50.667969 4.496094 49.503906 5.394531 C 48.417969 6.21875 47.449219 7.179688 46.417969 8.066406 C 45.257812 9.042969 43.992188 9.882812 42.683594 10.636719 C 39.875 12.234375 36.871094 13.457031 33.816406 14.480469 C 32.496094 14.910156 31.167969 15.3125 29.828125 15.660156 C 29.628906 15.703125 29.433594 15.773438 29.230469 15.785156 C 29.996094 15.597656 30.75 15.351562 31.503906 15.125 C 34.707031 14.128906 37.855469 12.921875 40.832031 11.351562 C 42.929688 10.234375 44.945312 8.925781 46.710938 7.316406 C 47.128906 6.945312 47.507812 6.53125 47.933594 6.167969 C 50.292969 4.09375 53.246094 2.773438 56.304688 2.210938 Z M 56.304688 2.210938 " fill-opacity="1" fill-rule="nonzero"/></g><g clip-path="url(#721f789adb)"><path fill="#000000" d="M 63.730469 2.464844 C 67.128906 2.238281 70.539062 2.503906 73.902344 2.988281 C 74.78125 3.054688 75.601562 3.398438 76.429688 3.679688 C 79.023438 4.582031 81.59375 5.574219 84.082031 6.75 C 81.957031 6.554688 79.820312 6.492188 77.6875 6.484375 C 75.136719 6.472656 72.585938 6.550781 70.042969 6.675781 C 69.433594 6.710938 68.820312 6.730469 68.222656 6.617188 C 67.746094 6.527344 67.277344 6.34375 66.902344 6.023438 C 65.890625 5.101562 64.929688 4.117188 63.832031 3.292969 C 63.644531 3.140625 63.410156 3.035156 63.273438 2.828125 C 63.21875 2.757812 63.210938 2.640625 63.292969 2.589844 C 63.417969 2.496094 63.582031 2.480469 63.730469 2.464844 Z M 63.730469 2.464844 " fill-opacity="1" fill-rule="nonzero"/></g><path fill="#000000" d="M 58.296875 3.089844 C 59.160156 3 60.050781 3.042969 60.890625 3.292969 C 62.003906 3.617188 63.011719 4.269531 63.832031 5.097656 C 64.519531 5.789062 65.082031 6.601562 65.546875 7.457031 C 62.191406 7.59375 58.835938 7.71875 55.480469 7.859375 C 55.019531 6.839844 54.421875 5.871094 53.636719 5.078125 C 53.507812 4.941406 53.332031 4.832031 53.273438 4.636719 C 53.261719 4.488281 53.425781 4.421875 53.535156 4.367188 C 54.105469 4.125 54.6875 3.925781 55.273438 3.742188 C 56.261719 3.4375 57.269531 3.191406 58.296875 3.089844 Z M 58.296875 3.089844 " fill-opacity="1" fill-rule="nonzero"/><path fill="#000000" d="M 51.726562 5.21875 C 51.949219 5.105469 52.164062 4.953125 52.417969 4.941406 C 52.613281 4.960938 52.765625 5.109375 52.910156 5.226562 C 53.34375 5.621094 53.675781 6.109375 53.996094 6.597656 C 54.171875 6.875 54.339844 7.160156 54.496094 7.453125 C 54.550781 7.558594 54.609375 7.6875 54.558594 7.804688 C 54.480469 7.925781 54.320312 7.914062 54.195312 7.914062 C 53.273438 7.902344 52.355469 7.917969 51.433594 7.949219 C 50.554688 7.988281 49.671875 8.035156 48.800781 8.179688 C 48.484375 8.234375 48.164062 8.296875 47.867188 8.429688 C 48.539062 7.269531 49.585938 6.375 50.738281 5.730469 C 51.058594 5.542969 51.394531 5.382812 51.726562 5.21875 Z M 51.726562 5.21875 " fill-opacity="1" fill-rule="nonzero"/><path fill="#000000" d="M 73.074219 7.253906 C 75.085938 7.207031 77.09375 7.152344 79.105469 7.058594 C 81.273438 6.984375 83.445312 7.015625 85.605469 7.21875 C 87.476562 7.382812 89.339844 7.585938 91.203125 7.835938 C 92.183594 7.96875 93.164062 8.113281 94.132812 8.3125 C 95.570312 8.59375 97.027344 8.882812 98.375 9.484375 C 98.78125 9.667969 99.175781 9.875 99.554688 10.113281 C 98.789062 9.8125 98.003906 9.558594 97.195312 9.402344 C 96.851562 9.332031 96.503906 9.296875 96.160156 9.226562 C 95.769531 9.195312 95.378906 9.230469 94.992188 9.226562 C 93.777344 9.234375 92.5625 9.273438 91.359375 9.441406 C 91.203125 9.464844 91.019531 9.496094 90.921875 9.636719 C 90.835938 9.777344 90.902344 9.945312 90.964844 10.082031 C 91.382812 10.828125 91.753906 11.597656 92.140625 12.359375 C 92.40625 12.898438 92.683594 13.429688 92.941406 13.96875 C 91.886719 12.265625 90.433594 10.824219 88.753906 9.765625 C 88.464844 9.585938 88.171875 9.417969 87.863281 9.269531 C 87.449219 9.074219 87 8.96875 86.550781 8.898438 C 85.683594 8.785156 84.832031 8.597656 83.96875 8.453125 C 79.863281 7.730469 75.703125 7.304688 71.535156 7.300781 C 72.046875 7.261719 72.5625 7.269531 73.074219 7.253906 Z M 73.074219 7.253906 " fill-opacity="1" fill-rule="nonzero"/><path fill="#000000" d="M 83.320312 9.566406 C 83.972656 9.707031 84.628906 9.945312 85.128906 10.40625 C 85.417969 10.667969 85.628906 11.015625 85.722656 11.398438 C 85.785156 11.648438 85.75 11.933594 85.597656 12.144531 C 85.414062 12.402344 85.117188 12.554688 84.824219 12.648438 C 85.09375 12.441406 85.371094 12.207031 85.484375 11.871094 C 85.589844 11.558594 85.488281 11.210938 85.300781 10.953125 C 85.003906 10.542969 84.585938 10.25 84.160156 9.992188 C 83.890625 9.832031 83.609375 9.691406 83.320312 9.566406 Z M 83.320312 9.566406 " fill-opacity="1" fill-rule="nonzero"/><path fill="#000000" d="M 95.824219 9.566406 C 96.003906 9.542969 96.1875 9.535156 96.371094 9.554688 C 97.226562 9.730469 98.097656 9.878906 98.929688 10.160156 C 99.171875 10.242188 99.417969 10.339844 99.617188 10.507812 C 99.882812 10.722656 100.050781 11.03125 100.160156 11.351562 C 100.355469 11.925781 100.554688 12.496094 100.695312 13.089844 C 100.75 13.339844 100.816406 13.621094 100.6875 13.863281 C 100.613281 14.015625 100.4375 14.09375 100.273438 14.082031 C 98.632812 13.957031 96.988281 13.890625 95.347656 13.863281 C 94.925781 13.847656 94.488281 13.90625 94.085938 13.761719 C 93.628906 13.601562 93.296875 13.222656 93.027344 12.832031 C 92.589844 12.183594 92.195312 11.5 91.832031 10.808594 C 91.71875 10.574219 91.613281 10.304688 91.679688 10.042969 C 91.730469 9.847656 91.933594 9.761719 92.113281 9.75 C 93.347656 9.625 94.589844 9.628906 95.824219 9.566406 Z M 95.824219 9.566406 " fill-opacity="1" fill-rule="nonzero"/><path fill="#000000" d="M 82.304688 9.609375 C 82.945312 9.554688 83.554688 9.851562 84.089844 10.175781 C 84.433594 10.386719 84.765625 10.636719 85 10.976562 C 85.1875 11.25 85.285156 11.597656 85.222656 11.933594 C 85.136719 12.230469 84.867188 12.4375 84.578125 12.527344 C 84.214844 12.636719 83.820312 12.621094 83.449219 12.546875 C 82.570312 12.375 81.8125 11.726562 81.457031 10.902344 C 81.34375 10.652344 81.328125 10.339844 81.503906 10.117188 C 81.707031 9.871094 81.976562 9.636719 82.304688 9.609375 Z M 82.304688 9.609375 " fill-opacity="1" fill-rule="nonzero"/><path fill="#000000" d="M 86.496094 9.625 C 87.128906 9.515625 87.765625 9.769531 88.28125 10.132812 C 88.613281 10.359375 88.90625 10.640625 89.175781 10.9375 C 89.421875 11.195312 89.582031 11.535156 89.667969 11.878906 C 89.730469 12.160156 89.734375 12.484375 89.550781 12.71875 C 89.339844 12.992188 88.972656 13.078125 88.644531 13.074219 C 87.765625 12.988281 86.929688 12.503906 86.414062 11.78125 C 86.222656 11.519531 86.070312 11.230469 85.957031 10.929688 C 85.863281 10.652344 85.839844 10.339844 85.953125 10.066406 C 86.046875 9.839844 86.257812 9.667969 86.496094 9.625 Z M 86.496094 9.625 " fill-opacity="1" fill-rule="nonzero"/><path fill="#000000" d="M 87.96875 9.722656 C 88.527344 10.03125 89.089844 10.355469 89.570312 10.785156 C 89.8125 11.007812 90.042969 11.257812 90.171875 11.566406 C 90.269531 11.800781 90.28125 12.078125 90.167969 12.304688 C 90.082031 12.492188 89.925781 12.636719 89.769531 12.761719 C 89.933594 12.457031 89.972656 12.089844 89.863281 11.757812 C 89.695312 11.230469 89.316406 10.808594 88.917969 10.445312 C 88.625 10.171875 88.292969 9.953125 87.96875 9.722656 Z M 87.96875 9.722656 " fill-opacity="1" fill-rule="nonzero"/><path fill="#000000" d="M 100.324219 10.929688 C 100.339844 10.921875 100.375 10.90625 100.390625 10.894531 C 100.546875 10.929688 100.664062 11.050781 100.777344 11.15625 C 101.101562 11.507812 101.328125 11.9375 101.519531 12.375 C 101.644531 12.679688 101.785156 12.984375 101.832031 13.3125 C 101.84375 13.457031 101.859375 13.625 101.753906 13.734375 C 101.691406 13.777344 101.617188 13.726562 101.570312 13.683594 C 101.148438 13.261719 100.9375 12.679688 100.671875 12.15625 C 100.53125 11.851562 100.378906 11.546875 100.300781 11.21875 C 100.285156 11.125 100.257812 11.007812 100.324219 10.929688 Z M 100.324219 10.929688 " fill-opacity="1" fill-rule="nonzero"/><path fill="#000000" d="M 71.996094 11.972656 C 72.703125 11.84375 73.457031 11.847656 74.136719 12.117188 C 74.734375 12.347656 75.25 12.761719 75.648438 13.261719 C 76.144531 13.886719 76.472656 14.632812 76.695312 15.402344 C 76.929688 16.246094 77.042969 17.121094 77.03125 18 C 76.988281 18.777344 76.886719 19.558594 76.683594 20.3125 C 76.488281 21.019531 76.203125 21.710938 75.765625 22.300781 C 75.378906 22.820312 74.863281 23.246094 74.269531 23.5 C 73.597656 23.789062 72.84375 23.855469 72.125 23.761719 C 72.75 23.699219 73.375 23.492188 73.882812 23.105469 C 74.457031 22.675781 74.871094 22.054688 75.15625 21.394531 C 75.523438 20.535156 75.707031 19.609375 75.8125 18.683594 C 75.929688 17.78125 75.914062 16.867188 75.800781 15.964844 C 75.703125 15.222656 75.527344 14.480469 75.1875 13.8125 C 74.894531 13.238281 74.464844 12.722656 73.910156 12.394531 C 73.335938 12.046875 72.65625 11.929688 71.996094 11.972656 Z M 71.996094 11.972656 " fill-opacity="1" fill-rule="nonzero"/><path fill="#000000" d="M 48.242188 13.976562 C 48.574219 14.550781 48.925781 15.121094 49.390625 15.59375 C 49.660156 15.867188 49.976562 16.097656 50.332031 16.238281 C 50.707031 16.386719 51.113281 16.425781 51.511719 16.457031 C 56.347656 16.753906 61.183594 17.03125 66.015625 17.320312 C 66.3125 17.347656 66.609375 17.332031 66.898438 17.382812 C 64.609375 17.332031 62.316406 17.3125 60.027344 17.269531 C 57.082031 17.226562 54.140625 17.175781 51.199219 17.132812 C 50.816406 17.117188 50.429688 17.152344 50.054688 17.070312 C 49.492188 16.941406 49.054688 16.46875 48.878906 15.921875 C 48.671875 15.273438 48.441406 14.628906 48.242188 13.976562 Z M 48.242188 13.976562 " fill-opacity="1" fill-rule="nonzero"/><path fill="#000000" d="M 51.710938 18.042969 C 51.882812 18.023438 52.050781 17.980469 52.222656 17.980469 C 55.414062 18.109375 58.609375 18.226562 61.800781 18.320312 C 62.957031 18.351562 64.113281 18.390625 65.273438 18.394531 C 65.402344 18.398438 65.53125 18.410156 65.660156 18.425781 C 65.199219 18.414062 64.742188 18.464844 64.285156 18.472656 C 61.382812 18.59375 58.476562 18.597656 55.574219 18.585938 C 53.285156 18.574219 50.996094 18.535156 48.707031 18.480469 C 49.707031 18.324219 50.710938 18.1875 51.710938 18.042969 Z M 51.710938 18.042969 " fill-opacity="1" fill-rule="nonzero"/><g clip-path="url(#fe50b85549)"><path fill="#000000" d="M 78.546875 18.398438 C 78.570312 18.328125 78.648438 18.339844 78.707031 18.339844 C 80.421875 18.425781 82.136719 18.5 83.851562 18.457031 C 84.117188 18.996094 84.578125 19.4375 85.136719 19.644531 C 85.5 19.785156 85.890625 19.839844 86.277344 19.824219 C 89.375 20.023438 92.476562 20.1875 95.578125 20.140625 C 96.683594 20.097656 97.789062 20.03125 98.890625 19.929688 C 99.746094 19.84375 100.601562 19.742188 101.445312 19.558594 C 101.808594 19.476562 102.171875 19.386719 102.515625 19.242188 C 102.691406 19.164062 102.878906 19.074219 102.988281 18.898438 C 103.164062 19.128906 103.246094 19.417969 103.324219 19.695312 C 103.398438 19.957031 103.351562 20.253906 103.171875 20.460938 C 102.917969 20.765625 102.539062 20.921875 102.171875 21.046875 C 101.414062 21.289062 100.617188 21.398438 99.828125 21.492188 C 97.777344 21.710938 95.714844 21.773438 93.652344 21.84375 C 89.390625 21.984375 85.125 21.855469 80.878906 21.492188 C 80.191406 21.429688 79.507812 21.363281 78.828125 21.28125 C 78.773438 21.265625 78.683594 21.277344 78.675781 21.203125 C 78.679688 20.265625 78.628906 19.332031 78.546875 18.398438 Z M 78.546875 18.398438 " fill-opacity="1" fill-rule="nonzero"/></g><g clip-path="url(#6a3b6c19b3)"><path fill="#000000" d="M 75.558594 23.078125 C 76.710938 22.070312 77.304688 20.515625 77.371094 18.992188 C 77.472656 19.414062 77.46875 19.851562 77.496094 20.28125 C 77.507812 20.851562 77.527344 21.425781 77.492188 21.996094 C 77.519531 22.117188 77.664062 22.148438 77.761719 22.171875 C 78.253906 22.246094 78.753906 22.238281 79.25 22.277344 C 79.109375 22.515625 78.898438 22.695312 78.710938 22.890625 C 78.414062 23.175781 78.109375 23.449219 77.792969 23.710938 C 77.433594 24.007812 76.941406 23.988281 76.503906 24.046875 C 75.5625 24.113281 74.617188 24.183594 73.675781 24.097656 C 74.363281 23.894531 75.015625 23.554688 75.558594 23.078125 Z M 75.558594 23.078125 " fill-opacity="1" fill-rule="nonzero"/></g><path fill="#000000" d="M 41.300781 19.777344 C 42.171875 19.847656 43.035156 19.960938 43.90625 20.042969 C 47.925781 20.453125 51.945312 20.84375 55.96875 21.199219 C 58.660156 21.433594 61.351562 21.660156 64.046875 21.816406 C 64.710938 21.84375 65.371094 21.894531 66.03125 21.902344 C 64.964844 21.917969 63.894531 21.886719 62.828125 21.878906 C 60.121094 21.855469 57.414062 21.832031 54.707031 21.824219 C 54.511719 21.816406 54.316406 21.828125 54.125 21.8125 C 49.847656 21.140625 45.574219 20.449219 41.300781 19.777344 Z M 41.300781 19.777344 " fill-opacity="1" fill-rule="nonzero"/><g clip-path="url(#7394268785)"><path fill="#000000" d="M 95.972656 22.496094 C 96.8125 22.472656 97.648438 22.433594 98.484375 22.363281 C 98.339844 22.628906 98.097656 22.816406 97.871094 23.007812 C 96.832031 23.832031 95.5625 24.386719 94.242188 24.460938 C 93.398438 24.511719 92.542969 24.34375 91.78125 23.976562 C 91.042969 23.628906 90.390625 23.113281 89.828125 22.523438 C 91.875 22.546875 93.925781 22.550781 95.972656 22.496094 Z M 95.972656 22.496094 " fill-opacity="1" fill-rule="nonzero"/></g><g fill="#000000" fill-opacity="1"><g transform="translate(27.954275, 35.927067)"><g><path d="M 1.390625 0.078125 C 0.984375 0.078125 0.78125 -0.128906 0.78125 -0.546875 L 0.78125 -6.5625 C 0.78125 -6.769531 0.832031 -6.925781 0.9375 -7.03125 C 1.039062 -7.144531 1.175781 -7.203125 1.34375 -7.203125 C 1.5 -7.203125 1.613281 -7.171875 1.6875 -7.109375 C 1.769531 -7.054688 1.863281 -6.960938 1.96875 -6.828125 L 5.578125 -2.15625 L 5.578125 -6.59375 C 5.578125 -7 5.78125 -7.203125 6.1875 -7.203125 C 6.582031 -7.203125 6.78125 -7 6.78125 -6.59375 L 6.78125 -0.53125 C 6.78125 -0.34375 6.734375 -0.191406 6.640625 -0.078125 C 6.546875 0.0234375 6.414062 0.078125 6.25 0.078125 C 6.101562 0.078125 5.984375 0.0507812 5.890625 0 C 5.796875 -0.0625 5.695312 -0.160156 5.59375 -0.296875 L 1.984375 -5 L 1.984375 -0.546875 C 1.984375 -0.128906 1.785156 0.078125 1.390625 0.078125 Z M 1.390625 0.078125 "/></g></g></g><g fill="#000000" fill-opacity="1"><g transform="translate(37.013706, 35.927067)"><g><path d="M 4.203125 0.09375 C 3.410156 0.09375 2.742188 -0.0507812 2.203125 -0.34375 C 1.660156 -0.632812 1.25 -1.050781 0.96875 -1.59375 C 0.6875 -2.144531 0.546875 -2.796875 0.546875 -3.546875 C 0.546875 -4.304688 0.691406 -4.957031 0.984375 -5.5 C 1.273438 -6.050781 1.691406 -6.476562 2.234375 -6.78125 C 2.773438 -7.082031 3.429688 -7.234375 4.203125 -7.234375 C 4.578125 -7.234375 4.953125 -7.1875 5.328125 -7.09375 C 5.710938 -7 6.070312 -6.84375 6.40625 -6.625 C 6.550781 -6.539062 6.632812 -6.425781 6.65625 -6.28125 C 6.6875 -6.132812 6.664062 -6 6.59375 -5.875 C 6.53125 -5.75 6.429688 -5.660156 6.296875 -5.609375 C 6.160156 -5.554688 6.015625 -5.578125 5.859375 -5.671875 C 5.597656 -5.816406 5.335938 -5.921875 5.078125 -5.984375 C 4.816406 -6.054688 4.523438 -6.09375 4.203125 -6.09375 C 3.441406 -6.09375 2.867188 -5.875 2.484375 -5.4375 C 2.097656 -5 1.90625 -4.367188 1.90625 -3.546875 C 1.90625 -2.722656 2.101562 -2.09375 2.5 -1.65625 C 2.894531 -1.226562 3.484375 -1.015625 4.265625 -1.015625 C 4.484375 -1.015625 4.707031 -1.03125 4.9375 -1.0625 C 5.175781 -1.101562 5.410156 -1.160156 5.640625 -1.234375 L 5.640625 -2.890625 L 4.53125 -2.890625 C 4.175781 -2.890625 4 -3.050781 4 -3.375 C 4 -3.695312 4.175781 -3.859375 4.53125 -3.859375 L 6.203125 -3.859375 C 6.546875 -3.859375 6.71875 -3.679688 6.71875 -3.328125 L 6.71875 -0.875 C 6.71875 -0.5625 6.597656 -0.359375 6.359375 -0.265625 C 6.054688 -0.160156 5.710938 -0.0703125 5.328125 0 C 4.953125 0.0625 4.578125 0.09375 4.203125 0.09375 Z M 4.203125 0.09375 "/></g></g></g><g fill="#000000" fill-opacity="1"><g transform="translate(45.951815, 35.927067)"><g><path d="M 3.96875 0.09375 C 3.28125 0.09375 2.675781 -0.0546875 2.15625 -0.359375 C 1.644531 -0.660156 1.25 -1.082031 0.96875 -1.625 C 0.6875 -2.175781 0.546875 -2.820312 0.546875 -3.5625 C 0.546875 -4.3125 0.6875 -4.957031 0.96875 -5.5 C 1.25 -6.050781 1.644531 -6.476562 2.15625 -6.78125 C 2.675781 -7.082031 3.28125 -7.234375 3.96875 -7.234375 C 4.664062 -7.234375 5.269531 -7.082031 5.78125 -6.78125 C 6.289062 -6.476562 6.6875 -6.050781 6.96875 -5.5 C 7.257812 -4.957031 7.40625 -4.316406 7.40625 -3.578125 C 7.40625 -2.828125 7.257812 -2.175781 6.96875 -1.625 C 6.6875 -1.082031 6.289062 -0.660156 5.78125 -0.359375 C 5.269531 -0.0546875 4.664062 0.09375 3.96875 0.09375 Z M 3.96875 -1.015625 C 4.625 -1.015625 5.132812 -1.238281 5.5 -1.6875 C 5.863281 -2.132812 6.046875 -2.757812 6.046875 -3.5625 C 6.046875 -4.375 5.863281 -5 5.5 -5.4375 C 5.144531 -5.882812 4.632812 -6.109375 3.96875 -6.109375 C 3.320312 -6.109375 2.816406 -5.882812 2.453125 -5.4375 C 2.085938 -5 1.90625 -4.375 1.90625 -3.5625 C 1.90625 -2.757812 2.085938 -2.132812 2.453125 -1.6875 C 2.816406 -1.238281 3.320312 -1.015625 3.96875 -1.015625 Z M 3.96875 -1.015625 "/></g></g></g><g fill="#000000" fill-opacity="1"><g transform="translate(55.385334, 35.927067)"><g><path d="M 4.09375 0.09375 C 3.351562 0.09375 2.71875 -0.0507812 2.1875 -0.34375 C 1.65625 -0.644531 1.25 -1.070312 0.96875 -1.625 C 0.6875 -2.175781 0.546875 -2.820312 0.546875 -3.5625 C 0.546875 -4.3125 0.6875 -4.957031 0.96875 -5.5 C 1.25 -6.050781 1.65625 -6.476562 2.1875 -6.78125 C 2.71875 -7.082031 3.351562 -7.234375 4.09375 -7.234375 C 4.46875 -7.234375 4.832031 -7.179688 5.1875 -7.078125 C 5.539062 -6.984375 5.851562 -6.851562 6.125 -6.6875 C 6.300781 -6.570312 6.40625 -6.429688 6.4375 -6.265625 C 6.46875 -6.109375 6.445312 -5.960938 6.375 -5.828125 C 6.300781 -5.703125 6.191406 -5.617188 6.046875 -5.578125 C 5.898438 -5.535156 5.734375 -5.570312 5.546875 -5.6875 C 5.335938 -5.820312 5.113281 -5.921875 4.875 -5.984375 C 4.632812 -6.046875 4.390625 -6.078125 4.140625 -6.078125 C 3.410156 -6.078125 2.859375 -5.859375 2.484375 -5.421875 C 2.109375 -4.984375 1.921875 -4.363281 1.921875 -3.5625 C 1.921875 -2.757812 2.109375 -2.140625 2.484375 -1.703125 C 2.859375 -1.265625 3.410156 -1.046875 4.140625 -1.046875 C 4.390625 -1.046875 4.640625 -1.078125 4.890625 -1.140625 C 5.140625 -1.210938 5.375 -1.316406 5.59375 -1.453125 C 5.78125 -1.566406 5.941406 -1.601562 6.078125 -1.5625 C 6.222656 -1.519531 6.332031 -1.4375 6.40625 -1.3125 C 6.476562 -1.1875 6.5 -1.046875 6.46875 -0.890625 C 6.4375 -0.742188 6.347656 -0.613281 6.203125 -0.5 C 5.929688 -0.3125 5.609375 -0.164062 5.234375 -0.0625 C 4.859375 0.0390625 4.476562 0.09375 4.09375 0.09375 Z M 4.09375 0.09375 "/></g></g></g><g fill="#000000" fill-opacity="1"><g transform="translate(63.757254, 35.927067)"><g/></g></g><g fill="#000000" fill-opacity="1"><g transform="translate(67.994004, 35.927067)"><g><path d="M 3.140625 0.078125 C 2.710938 0.078125 2.5 -0.144531 2.5 -0.59375 L 2.5 -6.046875 L 0.53125 -6.046875 C 0.15625 -6.046875 -0.03125 -6.226562 -0.03125 -6.59375 C -0.03125 -6.945312 0.15625 -7.125 0.53125 -7.125 L 5.765625 -7.125 C 6.128906 -7.125 6.3125 -6.945312 6.3125 -6.59375 C 6.3125 -6.226562 6.128906 -6.046875 5.765625 -6.046875 L 3.796875 -6.046875 L 3.796875 -0.59375 C 3.796875 -0.144531 3.578125 0.078125 3.140625 0.078125 Z M 3.140625 0.078125 "/></g></g></g><g fill="#000000" fill-opacity="1"><g transform="translate(75.769413, 35.927067)"><g><path d="M 1.421875 0.078125 C 0.992188 0.078125 0.78125 -0.144531 0.78125 -0.59375 L 0.78125 -6.546875 C 0.78125 -6.984375 0.992188 -7.203125 1.421875 -7.203125 C 1.859375 -7.203125 2.078125 -6.984375 2.078125 -6.546875 L 2.078125 -4.15625 L 5.734375 -4.15625 L 5.734375 -6.546875 C 5.734375 -6.984375 5.953125 -7.203125 6.390625 -7.203125 C 6.816406 -7.203125 7.03125 -6.984375 7.03125 -6.546875 L 7.03125 -0.59375 C 7.03125 -0.144531 6.816406 0.078125 6.390625 0.078125 C 5.953125 0.078125 5.734375 -0.144531 5.734375 -0.59375 L 5.734375 -3.078125 L 2.078125 -3.078125 L 2.078125 -0.59375 C 2.078125 -0.144531 1.859375 0.078125 1.421875 0.078125 Z M 1.421875 0.078125 "/></g></g></g><g fill="#000000" fill-opacity="1"><g transform="translate(85.081608, 35.927067)"><g><path d="M 3.96875 0.09375 C 3.28125 0.09375 2.675781 -0.0546875 2.15625 -0.359375 C 1.644531 -0.660156 1.25 -1.082031 0.96875 -1.625 C 0.6875 -2.175781 0.546875 -2.820312 0.546875 -3.5625 C 0.546875 -4.3125 0.6875 -4.957031 0.96875 -5.5 C 1.25 -6.050781 1.644531 -6.476562 2.15625 -6.78125 C 2.675781 -7.082031 3.28125 -7.234375 3.96875 -7.234375 C 4.664062 -7.234375 5.269531 -7.082031 5.78125 -6.78125 C 6.289062 -6.476562 6.6875 -6.050781 6.96875 -5.5 C 7.257812 -4.957031 7.40625 -4.316406 7.40625 -3.578125 C 7.40625 -2.828125 7.257812 -2.175781 6.96875 -1.625 C 6.6875 -1.082031 6.289062 -0.660156 5.78125 -0.359375 C 5.269531 -0.0546875 4.664062 0.09375 3.96875 0.09375 Z M 3.96875 -1.015625 C 4.625 -1.015625 5.132812 -1.238281 5.5 -1.6875 C 5.863281 -2.132812 6.046875 -2.757812 6.046875 -3.5625 C 6.046875 -4.375 5.863281 -5 5.5 -5.4375 C 5.144531 -5.882812 4.632812 -6.109375 3.96875 -6.109375 C 3.320312 -6.109375 2.816406 -5.882812 2.453125 -5.4375 C 2.085938 -5 1.90625 -4.375 1.90625 -3.5625 C 1.90625 -2.757812 2.085938 -2.132812 2.453125 -1.6875 C 2.816406 -1.238281 3.320312 -1.015625 3.96875 -1.015625 Z M 3.96875 -1.015625 "/></g></g></g><g fill="#000000" fill-opacity="1"><g transform="translate(94.515125, 35.927067)"><g><path d="M 1.390625 0.078125 C 0.984375 0.078125 0.78125 -0.128906 0.78125 -0.546875 L 0.78125 -6.5625 C 0.78125 -6.769531 0.832031 -6.925781 0.9375 -7.03125 C 1.039062 -7.144531 1.175781 -7.203125 1.34375 -7.203125 C 1.5 -7.203125 1.613281 -7.171875 1.6875 -7.109375 C 1.769531 -7.054688 1.863281 -6.960938 1.96875 -6.828125 L 5.578125 -2.15625 L 5.578125 -6.59375 C 5.578125 -7 5.78125 -7.203125 6.1875 -7.203125 C 6.582031 -7.203125 6.78125 -7 6.78125 -6.59375 L 6.78125 -0.53125 C 6.78125 -0.34375 6.734375 -0.191406 6.640625 -0.078125 C 6.546875 0.0234375 6.414062 0.078125 6.25 0.078125 C 6.101562 0.078125 5.984375 0.0507812 5.890625 0 C 5.796875 -0.0625 5.695312 -0.160156 5.59375 -0.296875 L 1.984375 -5 L 1.984375 -0.546875 C 1.984375 -0.128906 1.785156 0.078125 1.390625 0.078125 Z M 1.390625 0.078125 "/></g></g></g><g fill="#000000" fill-opacity="1"><g transform="translate(103.574553, 35.927067)"><g><path d="M 4.203125 0.09375 C 3.410156 0.09375 2.742188 -0.0507812 2.203125 -0.34375 C 1.660156 -0.632812 1.25 -1.050781 0.96875 -1.59375 C 0.6875 -2.144531 0.546875 -2.796875 0.546875 -3.546875 C 0.546875 -4.304688 0.691406 -4.957031 0.984375 -5.5 C 1.273438 -6.050781 1.691406 -6.476562 2.234375 -6.78125 C 2.773438 -7.082031 3.429688 -7.234375 4.203125 -7.234375 C 4.578125 -7.234375 4.953125 -7.1875 5.328125 -7.09375 C 5.710938 -7 6.070312 -6.84375 6.40625 -6.625 C 6.550781 -6.539062 6.632812 -6.425781 6.65625 -6.28125 C 6.6875 -6.132812 6.664062 -6 6.59375 -5.875 C 6.53125 -5.75 6.429688 -5.660156 6.296875 -5.609375 C 6.160156 -5.554688 6.015625 -5.578125 5.859375 -5.671875 C 5.597656 -5.816406 5.335938 -5.921875 5.078125 -5.984375 C 4.816406 -6.054688 4.523438 -6.09375 4.203125 -6.09375 C 3.441406 -6.09375 2.867188 -5.875 2.484375 -5.4375 C 2.097656 -5 1.90625 -4.367188 1.90625 -3.546875 C 1.90625 -2.722656 2.101562 -2.09375 2.5 -1.65625 C 2.894531 -1.226562 3.484375 -1.015625 4.265625 -1.015625 C 4.484375 -1.015625 4.707031 -1.03125 4.9375 -1.0625 C 5.175781 -1.101562 5.410156 -1.160156 5.640625 -1.234375 L 5.640625 -2.890625 L 4.53125 -2.890625 C 4.175781 -2.890625 4 -3.050781 4 -3.375 C 4 -3.695312 4.175781 -3.859375 4.53125 -3.859375 L 6.203125 -3.859375 C 6.546875 -3.859375 6.71875 -3.679688 6.71875 -3.328125 L 6.71875 -0.875 C 6.71875 -0.5625 6.597656 -0.359375 6.359375 -0.265625 C 6.054688 -0.160156 5.710938 -0.0703125 5.328125 0 C 4.953125 0.0625 4.578125 0.09375 4.203125 0.09375 Z M 4.203125 0.09375 "/></g></g></g></svg>