<svg xmlns="http://www.w3.org/2000/svg" xmlns:xlink="http://www.w3.org/1999/xlink" width="192" zoomAndPan="magnify" viewBox="0 0 144 38.999999" height="52" preserveAspectRatio="xMidYMid meet" version="1.0"><defs><g/><clipPath id="3730a57933"><path d="M 24.417969 1.367188 L 60 1.367188 L 60 18 L 24.417969 18 Z M 24.417969 1.367188 " clip-rule="nonzero"/></clipPath><clipPath id="3dbfb5f351"><path d="M 65 1.367188 L 91 1.367188 L 91 8 L 65 8 Z M 65 1.367188 " clip-rule="nonzero"/></clipPath><clipPath id="a8a45529fa"><path d="M 84 20 L 114.417969 20 L 114.417969 26 L 84 26 Z M 84 20 " clip-rule="nonzero"/></clipPath><clipPath id="64350c2329"><path d="M 97 25 L 109 25 L 109 28.367188 L 97 28.367188 Z M 97 25 " clip-rule="nonzero"/></clipPath></defs><g clip-path="url(#3730a57933)"><path fill="#ffffff" d="M 57.285156 1.605469 C 57.933594 1.5 58.585938 1.378906 59.242188 1.367188 C 57.34375 1.664062 55.464844 2.128906 53.671875 2.828125 C 52.015625 3.46875 50.453125 4.347656 49.039062 5.425781 C 47.726562 6.414062 46.550781 7.566406 45.300781 8.632812 C 43.894531 9.804688 42.359375 10.8125 40.773438 11.714844 C 37.367188 13.636719 33.726562 15.105469 30.023438 16.328125 C 28.425781 16.847656 26.816406 17.328125 25.1875 17.742188 C 24.945312 17.796875 24.710938 17.882812 24.464844 17.898438 C 25.394531 17.667969 26.304688 17.378906 27.222656 17.105469 C 31.101562 15.90625 34.921875 14.460938 38.527344 12.574219 C 41.074219 11.234375 43.511719 9.664062 45.652344 7.730469 C 46.164062 7.289062 46.621094 6.789062 47.140625 6.355469 C 49.996094 3.863281 53.578125 2.28125 57.285156 1.605469 Z M 57.285156 1.605469 " fill-opacity="1" fill-rule="nonzero"/></g><g clip-path="url(#3dbfb5f351)"><path fill="#ffffff" d="M 66.289062 1.910156 C 70.40625 1.636719 74.539062 1.960938 78.617188 2.539062 C 79.683594 2.621094 80.679688 3.03125 81.683594 3.367188 C 84.828125 4.449219 87.9375 5.644531 90.957031 7.050781 C 88.378906 6.820312 85.792969 6.742188 83.203125 6.738281 C 80.113281 6.722656 77.023438 6.8125 73.9375 6.964844 C 73.203125 7.007812 72.457031 7.03125 71.730469 6.894531 C 71.15625 6.789062 70.585938 6.566406 70.132812 6.183594 C 68.90625 5.074219 67.738281 3.894531 66.410156 2.902344 C 66.183594 2.722656 65.898438 2.597656 65.730469 2.34375 C 65.667969 2.261719 65.65625 2.125 65.753906 2.058594 C 65.90625 1.945312 66.105469 1.929688 66.289062 1.910156 Z M 66.289062 1.910156 " fill-opacity="1" fill-rule="nonzero"/></g><path fill="#ffffff" d="M 59.699219 2.660156 C 60.75 2.554688 61.824219 2.605469 62.84375 2.90625 C 64.195312 3.292969 65.417969 4.078125 66.410156 5.070312 C 67.246094 5.898438 67.921875 6.871094 68.488281 7.902344 C 64.421875 8.066406 60.355469 8.21875 56.285156 8.386719 C 55.726562 7.164062 55.003906 6 54.054688 5.046875 C 53.894531 4.878906 53.679688 4.75 53.609375 4.519531 C 53.597656 4.339844 53.796875 4.261719 53.929688 4.195312 C 54.617188 3.902344 55.324219 3.664062 56.035156 3.441406 C 57.230469 3.078125 58.453125 2.785156 59.699219 2.660156 Z M 59.699219 2.660156 " fill-opacity="1" fill-rule="nonzero"/><path fill="#ffffff" d="M 51.738281 5.214844 C 52.003906 5.082031 52.265625 4.894531 52.574219 4.882812 C 52.8125 4.910156 52.992188 5.082031 53.171875 5.226562 C 53.695312 5.699219 54.101562 6.285156 54.484375 6.871094 C 54.699219 7.203125 54.90625 7.542969 55.09375 7.894531 C 55.15625 8.023438 55.230469 8.175781 55.167969 8.320312 C 55.070312 8.464844 54.878906 8.449219 54.726562 8.453125 C 53.613281 8.4375 52.496094 8.457031 51.382812 8.488281 C 50.316406 8.539062 49.246094 8.597656 48.1875 8.769531 C 47.804688 8.835938 47.414062 8.910156 47.058594 9.070312 C 47.871094 7.675781 49.140625 6.605469 50.535156 5.828125 C 50.925781 5.601562 51.332031 5.414062 51.738281 5.214844 Z M 51.738281 5.214844 " fill-opacity="1" fill-rule="nonzero"/><path fill="#ffffff" d="M 77.613281 7.660156 C 80.050781 7.601562 82.488281 7.539062 84.921875 7.425781 C 87.550781 7.335938 90.1875 7.371094 92.804688 7.617188 C 95.070312 7.816406 97.332031 8.058594 99.589844 8.355469 C 100.777344 8.515625 101.964844 8.691406 103.140625 8.925781 C 104.886719 9.265625 106.648438 9.613281 108.285156 10.335938 C 108.773438 10.554688 109.257812 10.800781 109.710938 11.089844 C 108.785156 10.730469 107.832031 10.421875 106.855469 10.234375 C 106.4375 10.148438 106.015625 10.109375 105.601562 10.023438 C 105.128906 9.984375 104.652344 10.027344 104.179688 10.023438 C 102.710938 10.035156 101.238281 10.082031 99.78125 10.28125 C 99.589844 10.3125 99.371094 10.347656 99.25 10.515625 C 99.144531 10.683594 99.226562 10.890625 99.300781 11.050781 C 99.804688 11.945312 100.257812 12.871094 100.726562 13.785156 C 101.050781 14.429688 101.382812 15.066406 101.695312 15.71875 C 100.417969 13.671875 98.660156 11.941406 96.617188 10.671875 C 96.269531 10.457031 95.914062 10.253906 95.542969 10.078125 C 95.039062 9.84375 94.496094 9.714844 93.949219 9.628906 C 92.898438 9.492188 91.863281 9.269531 90.820312 9.09375 C 85.84375 8.226562 80.796875 7.71875 75.746094 7.710938 C 76.367188 7.667969 76.992188 7.679688 77.613281 7.660156 Z M 77.613281 7.660156 " fill-opacity="1" fill-rule="nonzero"/><path fill="#ffffff" d="M 90.035156 10.433594 C 90.824219 10.601562 91.621094 10.886719 92.226562 11.441406 C 92.574219 11.753906 92.835938 12.171875 92.945312 12.632812 C 93.019531 12.933594 92.980469 13.269531 92.796875 13.527344 C 92.570312 13.835938 92.210938 14.015625 91.855469 14.132812 C 92.183594 13.882812 92.519531 13.601562 92.65625 13.199219 C 92.789062 12.824219 92.664062 12.40625 92.433594 12.097656 C 92.078125 11.605469 91.566406 11.25 91.054688 10.941406 C 90.726562 10.75 90.386719 10.582031 90.035156 10.433594 Z M 90.035156 10.433594 " fill-opacity="1" fill-rule="nonzero"/><path fill="#ffffff" d="M 105.191406 10.429688 C 105.410156 10.402344 105.632812 10.394531 105.855469 10.417969 C 106.894531 10.628906 107.945312 10.808594 108.957031 11.144531 C 109.253906 11.242188 109.546875 11.359375 109.789062 11.5625 C 110.109375 11.820312 110.316406 12.191406 110.449219 12.574219 C 110.683594 13.261719 110.929688 13.949219 111.097656 14.660156 C 111.164062 14.960938 111.242188 15.296875 111.085938 15.585938 C 110.996094 15.773438 110.78125 15.863281 110.582031 15.851562 C 108.597656 15.699219 106.605469 15.621094 104.613281 15.589844 C 104.101562 15.570312 103.574219 15.636719 103.082031 15.46875 C 102.53125 15.277344 102.128906 14.816406 101.800781 14.351562 C 101.269531 13.574219 100.792969 12.753906 100.351562 11.921875 C 100.214844 11.640625 100.085938 11.320312 100.167969 11.003906 C 100.230469 10.769531 100.476562 10.667969 100.695312 10.652344 C 102.191406 10.503906 103.695312 10.507812 105.191406 10.429688 Z M 105.191406 10.429688 " fill-opacity="1" fill-rule="nonzero"/><path fill="#ffffff" d="M 88.804688 10.484375 C 89.582031 10.421875 90.316406 10.773438 90.96875 11.164062 C 91.386719 11.417969 91.789062 11.71875 92.070312 12.125 C 92.296875 12.453125 92.414062 12.871094 92.34375 13.273438 C 92.234375 13.632812 91.90625 13.878906 91.558594 13.984375 C 91.117188 14.117188 90.640625 14.097656 90.191406 14.011719 C 89.125 13.804688 88.207031 13.027344 87.773438 12.035156 C 87.640625 11.734375 87.621094 11.359375 87.835938 11.09375 C 88.078125 10.796875 88.40625 10.519531 88.804688 10.484375 Z M 88.804688 10.484375 " fill-opacity="1" fill-rule="nonzero"/><path fill="#ffffff" d="M 93.882812 10.503906 C 94.652344 10.371094 95.425781 10.675781 96.050781 11.109375 C 96.449219 11.386719 96.804688 11.722656 97.132812 12.078125 C 97.433594 12.390625 97.625 12.792969 97.730469 13.210938 C 97.804688 13.542969 97.808594 13.933594 97.589844 14.214844 C 97.332031 14.542969 96.886719 14.648438 96.488281 14.640625 C 95.421875 14.539062 94.410156 13.957031 93.78125 13.089844 C 93.554688 12.777344 93.371094 12.429688 93.230469 12.070312 C 93.117188 11.738281 93.085938 11.359375 93.226562 11.03125 C 93.339844 10.761719 93.59375 10.558594 93.882812 10.503906 Z M 93.882812 10.503906 " fill-opacity="1" fill-rule="nonzero"/><path fill="#ffffff" d="M 95.667969 10.621094 C 96.347656 10.992188 97.027344 11.378906 97.609375 11.894531 C 97.902344 12.160156 98.183594 12.460938 98.339844 12.832031 C 98.460938 13.113281 98.472656 13.445312 98.335938 13.71875 C 98.230469 13.945312 98.042969 14.117188 97.851562 14.265625 C 98.050781 13.902344 98.101562 13.460938 97.96875 13.0625 C 97.765625 12.429688 97.300781 11.925781 96.820312 11.488281 C 96.464844 11.160156 96.0625 10.894531 95.667969 10.621094 Z M 95.667969 10.621094 " fill-opacity="1" fill-rule="nonzero"/><path fill="#ffffff" d="M 110.648438 12.070312 C 110.667969 12.058594 110.707031 12.039062 110.726562 12.027344 C 110.914062 12.070312 111.058594 12.210938 111.195312 12.34375 C 111.589844 12.761719 111.863281 13.277344 112.09375 13.800781 C 112.25 14.167969 112.417969 14.535156 112.472656 14.929688 C 112.492188 15.101562 112.507812 15.300781 112.382812 15.4375 C 112.300781 15.488281 112.214844 15.421875 112.15625 15.375 C 111.644531 14.867188 111.390625 14.171875 111.066406 13.539062 C 110.898438 13.175781 110.714844 12.808594 110.617188 12.414062 C 110.601562 12.300781 110.566406 12.164062 110.648438 12.070312 Z M 110.648438 12.070312 " fill-opacity="1" fill-rule="nonzero"/><path fill="#ffffff" d="M 76.304688 13.320312 C 77.167969 13.164062 78.078125 13.171875 78.902344 13.496094 C 79.625 13.769531 80.25 14.265625 80.734375 14.867188 C 81.332031 15.621094 81.734375 16.515625 82 17.433594 C 82.289062 18.445312 82.425781 19.5 82.410156 20.550781 C 82.359375 21.488281 82.234375 22.421875 81.988281 23.328125 C 81.753906 24.179688 81.40625 25.007812 80.875 25.714844 C 80.40625 26.335938 79.785156 26.851562 79.0625 27.152344 C 78.246094 27.5 77.335938 27.582031 76.460938 27.46875 C 77.222656 27.394531 77.976562 27.144531 78.589844 26.679688 C 79.289062 26.164062 79.792969 25.417969 80.136719 24.628906 C 80.582031 23.597656 80.804688 22.484375 80.933594 21.375 C 81.074219 20.292969 81.054688 19.191406 80.921875 18.113281 C 80.800781 17.21875 80.585938 16.328125 80.171875 15.527344 C 79.820312 14.835938 79.296875 14.21875 78.625 13.828125 C 77.929688 13.410156 77.105469 13.269531 76.304688 13.320312 Z M 76.304688 13.320312 " fill-opacity="1" fill-rule="nonzero"/><path fill="#ffffff" d="M 47.511719 15.726562 C 47.910156 16.414062 48.339844 17.097656 48.902344 17.667969 C 49.230469 17.992188 49.613281 18.273438 50.042969 18.4375 C 50.5 18.621094 50.992188 18.664062 51.476562 18.699219 C 57.335938 19.058594 63.199219 19.390625 69.058594 19.734375 C 69.414062 19.769531 69.773438 19.75 70.128906 19.8125 C 67.351562 19.753906 64.574219 19.726562 61.796875 19.675781 C 58.230469 19.625 54.664062 19.5625 51.097656 19.511719 C 50.632812 19.492188 50.164062 19.535156 49.710938 19.4375 C 49.027344 19.285156 48.496094 18.714844 48.285156 18.058594 C 48.03125 17.28125 47.753906 16.507812 47.511719 15.726562 Z M 47.511719 15.726562 " fill-opacity="1" fill-rule="nonzero"/><path fill="#ffffff" d="M 51.714844 20.605469 C 51.921875 20.578125 52.128906 20.53125 52.335938 20.53125 C 56.207031 20.683594 60.078125 20.824219 63.949219 20.941406 C 65.351562 20.976562 66.753906 21.023438 68.15625 21.027344 C 68.3125 21.03125 68.46875 21.042969 68.625 21.066406 C 68.070312 21.050781 67.515625 21.113281 66.957031 21.121094 C 63.441406 21.261719 59.917969 21.273438 56.398438 21.257812 C 53.625 21.242188 50.851562 21.195312 48.078125 21.128906 C 49.289062 20.945312 50.503906 20.78125 51.714844 20.605469 Z M 51.714844 20.605469 " fill-opacity="1" fill-rule="nonzero"/><g clip-path="url(#a8a45529fa)"><path fill="#ffffff" d="M 84.246094 21.03125 C 84.277344 20.949219 84.371094 20.960938 84.445312 20.960938 C 86.519531 21.0625 88.597656 21.152344 90.675781 21.101562 C 91.003906 21.746094 91.558594 22.277344 92.238281 22.527344 C 92.675781 22.695312 93.148438 22.761719 93.621094 22.742188 C 97.371094 22.980469 101.132812 23.175781 104.894531 23.121094 C 106.234375 23.070312 107.574219 22.992188 108.90625 22.867188 C 109.945312 22.765625 110.984375 22.640625 112.003906 22.425781 C 112.445312 22.328125 112.882812 22.21875 113.300781 22.042969 C 113.515625 21.949219 113.746094 21.839844 113.875 21.632812 C 114.089844 21.910156 114.1875 22.253906 114.285156 22.585938 C 114.375 22.898438 114.316406 23.257812 114.101562 23.507812 C 113.789062 23.871094 113.332031 24.058594 112.886719 24.207031 C 111.964844 24.5 111 24.628906 110.042969 24.742188 C 107.558594 25.003906 105.058594 25.078125 102.558594 25.164062 C 97.394531 25.335938 92.222656 25.179688 87.074219 24.742188 C 86.242188 24.667969 85.414062 24.589844 84.585938 24.492188 C 84.523438 24.472656 84.414062 24.484375 84.40625 24.394531 C 84.40625 23.273438 84.347656 22.148438 84.246094 21.03125 Z M 84.246094 21.03125 " fill-opacity="1" fill-rule="nonzero"/></g><path fill="#ffffff" d="M 80.625 26.648438 C 82.023438 25.433594 82.742188 23.570312 82.820312 21.746094 C 82.945312 22.25 82.9375 22.773438 82.972656 23.289062 C 82.988281 23.976562 83.011719 24.664062 82.972656 25.351562 C 83 25.492188 83.175781 25.53125 83.296875 25.558594 C 83.894531 25.648438 84.5 25.640625 85.097656 25.6875 C 84.929688 25.972656 84.675781 26.1875 84.445312 26.417969 C 84.089844 26.761719 83.714844 27.089844 83.335938 27.40625 C 82.898438 27.765625 82.300781 27.738281 81.769531 27.808594 C 80.632812 27.886719 79.484375 27.972656 78.34375 27.867188 C 79.175781 27.625 79.96875 27.21875 80.625 26.648438 Z M 80.625 26.648438 " fill-opacity="1" fill-rule="nonzero"/><path fill="#ffffff" d="M 39.097656 22.6875 C 40.152344 22.769531 41.199219 22.90625 42.253906 23.003906 C 47.125 23.496094 52 23.96875 56.875 24.394531 C 60.140625 24.675781 63.402344 24.945312 66.671875 25.132812 C 67.472656 25.167969 68.273438 25.226562 69.078125 25.234375 C 67.78125 25.253906 66.488281 25.21875 65.191406 25.207031 C 61.910156 25.179688 58.628906 25.152344 55.347656 25.140625 C 55.113281 25.132812 54.878906 25.148438 54.644531 25.128906 C 49.460938 24.320312 44.28125 23.492188 39.097656 22.6875 Z M 39.097656 22.6875 " fill-opacity="1" fill-rule="nonzero"/><g clip-path="url(#64350c2329)"><path fill="#ffffff" d="M 105.375 25.949219 C 106.390625 25.921875 107.402344 25.875 108.414062 25.789062 C 108.242188 26.109375 107.945312 26.332031 107.675781 26.5625 C 106.414062 27.550781 104.875 28.214844 103.273438 28.308594 C 102.25 28.367188 101.214844 28.164062 100.289062 27.722656 C 99.394531 27.304688 98.601562 26.691406 97.921875 25.980469 C 100.40625 26.011719 102.890625 26.015625 105.375 25.949219 Z M 105.375 25.949219 " fill-opacity="1" fill-rule="nonzero"/></g><g fill="#ffffff" fill-opacity="1"><g transform="translate(30.074253, 37.307835)"><g><path d="M 1.390625 0.078125 C 0.984375 0.078125 0.78125 -0.128906 0.78125 -0.546875 L 0.78125 -6.625 C 0.78125 -6.832031 0.832031 -6.992188 0.9375 -7.109375 C 1.050781 -7.222656 1.191406 -7.28125 1.359375 -7.28125 C 1.515625 -7.28125 1.628906 -7.25 1.703125 -7.1875 C 1.785156 -7.125 1.878906 -7.023438 1.984375 -6.890625 L 5.625 -2.171875 L 5.625 -6.65625 C 5.625 -7.070312 5.832031 -7.28125 6.25 -7.28125 C 6.644531 -7.28125 6.84375 -7.070312 6.84375 -6.65625 L 6.84375 -0.53125 C 6.84375 -0.34375 6.796875 -0.191406 6.703125 -0.078125 C 6.609375 0.0234375 6.476562 0.078125 6.3125 0.078125 C 6.15625 0.078125 6.03125 0.046875 5.9375 -0.015625 C 5.851562 -0.078125 5.753906 -0.175781 5.640625 -0.3125 L 2 -5.046875 L 2 -0.546875 C 2 -0.128906 1.796875 0.078125 1.390625 0.078125 Z M 1.390625 0.078125 "/></g></g></g><g fill="#ffffff" fill-opacity="1"><g transform="translate(39.219811, 37.307835)"><g><path d="M 4.25 0.109375 C 3.445312 0.109375 2.769531 -0.0390625 2.21875 -0.34375 C 1.675781 -0.644531 1.257812 -1.070312 0.96875 -1.625 C 0.6875 -2.175781 0.546875 -2.828125 0.546875 -3.578125 C 0.546875 -4.335938 0.691406 -4.992188 0.984375 -5.546875 C 1.273438 -6.109375 1.695312 -6.539062 2.25 -6.84375 C 2.800781 -7.144531 3.460938 -7.296875 4.234375 -7.296875 C 4.617188 -7.296875 5 -7.25 5.375 -7.15625 C 5.757812 -7.0625 6.125 -6.90625 6.46875 -6.6875 C 6.613281 -6.601562 6.695312 -6.488281 6.71875 -6.34375 C 6.75 -6.195312 6.726562 -6.054688 6.65625 -5.921875 C 6.59375 -5.796875 6.492188 -5.707031 6.359375 -5.65625 C 6.222656 -5.601562 6.070312 -5.625 5.90625 -5.71875 C 5.644531 -5.875 5.378906 -5.984375 5.109375 -6.046875 C 4.847656 -6.117188 4.554688 -6.15625 4.234375 -6.15625 C 3.472656 -6.15625 2.894531 -5.929688 2.5 -5.484375 C 2.113281 -5.046875 1.921875 -4.410156 1.921875 -3.578125 C 1.921875 -2.742188 2.117188 -2.109375 2.515625 -1.671875 C 2.921875 -1.234375 3.519531 -1.015625 4.3125 -1.015625 C 4.53125 -1.015625 4.753906 -1.03125 4.984375 -1.0625 C 5.222656 -1.101562 5.457031 -1.164062 5.6875 -1.25 L 5.6875 -2.921875 L 4.578125 -2.921875 C 4.222656 -2.921875 4.046875 -3.082031 4.046875 -3.40625 C 4.046875 -3.726562 4.222656 -3.890625 4.578125 -3.890625 L 6.25 -3.890625 C 6.601562 -3.890625 6.78125 -3.710938 6.78125 -3.359375 L 6.78125 -0.875 C 6.78125 -0.5625 6.660156 -0.363281 6.421875 -0.28125 C 6.117188 -0.164062 5.773438 -0.0703125 5.390625 0 C 5.003906 0.0703125 4.625 0.109375 4.25 0.109375 Z M 4.25 0.109375 "/></g></g></g><g fill="#ffffff" fill-opacity="1"><g transform="translate(48.242894, 37.307835)"><g><path d="M 4.015625 0.109375 C 3.316406 0.109375 2.707031 -0.0390625 2.1875 -0.34375 C 1.664062 -0.65625 1.257812 -1.085938 0.96875 -1.640625 C 0.6875 -2.203125 0.546875 -2.859375 0.546875 -3.609375 C 0.546875 -4.359375 0.6875 -5.007812 0.96875 -5.5625 C 1.257812 -6.113281 1.660156 -6.539062 2.171875 -6.84375 C 2.691406 -7.144531 3.304688 -7.296875 4.015625 -7.296875 C 4.710938 -7.296875 5.316406 -7.144531 5.828125 -6.84375 C 6.347656 -6.539062 6.75 -6.113281 7.03125 -5.5625 C 7.320312 -5.007812 7.46875 -4.359375 7.46875 -3.609375 C 7.46875 -2.859375 7.320312 -2.203125 7.03125 -1.640625 C 6.75 -1.085938 6.347656 -0.65625 5.828125 -0.34375 C 5.316406 -0.0390625 4.710938 0.109375 4.015625 0.109375 Z M 4.015625 -1.015625 C 4.671875 -1.015625 5.179688 -1.242188 5.546875 -1.703125 C 5.910156 -2.160156 6.09375 -2.796875 6.09375 -3.609375 C 6.09375 -4.421875 5.910156 -5.050781 5.546875 -5.5 C 5.191406 -5.945312 4.679688 -6.171875 4.015625 -6.171875 C 3.347656 -6.171875 2.832031 -5.945312 2.46875 -5.5 C 2.101562 -5.050781 1.921875 -4.421875 1.921875 -3.609375 C 1.921875 -2.796875 2.101562 -2.160156 2.46875 -1.703125 C 2.832031 -1.242188 3.347656 -1.015625 4.015625 -1.015625 Z M 4.015625 -1.015625 "/></g></g></g><g fill="#ffffff" fill-opacity="1"><g transform="translate(57.766097, 37.307835)"><g><path d="M 4.125 0.109375 C 3.382812 0.109375 2.742188 -0.0390625 2.203125 -0.34375 C 1.671875 -0.65625 1.257812 -1.085938 0.96875 -1.640625 C 0.6875 -2.191406 0.546875 -2.847656 0.546875 -3.609375 C 0.546875 -4.359375 0.6875 -5.007812 0.96875 -5.5625 C 1.257812 -6.113281 1.671875 -6.539062 2.203125 -6.84375 C 2.742188 -7.144531 3.382812 -7.296875 4.125 -7.296875 C 4.5 -7.296875 4.867188 -7.25 5.234375 -7.15625 C 5.597656 -7.0625 5.914062 -6.925781 6.1875 -6.75 C 6.363281 -6.632812 6.46875 -6.492188 6.5 -6.328125 C 6.53125 -6.171875 6.507812 -6.023438 6.4375 -5.890625 C 6.363281 -5.753906 6.25 -5.664062 6.09375 -5.625 C 5.945312 -5.582031 5.78125 -5.625 5.59375 -5.75 C 5.382812 -5.882812 5.15625 -5.976562 4.90625 -6.03125 C 4.664062 -6.09375 4.421875 -6.125 4.171875 -6.125 C 3.441406 -6.125 2.882812 -5.90625 2.5 -5.46875 C 2.125 -5.03125 1.9375 -4.410156 1.9375 -3.609375 C 1.9375 -2.796875 2.125 -2.164062 2.5 -1.71875 C 2.882812 -1.28125 3.441406 -1.0625 4.171875 -1.0625 C 4.429688 -1.0625 4.6875 -1.09375 4.9375 -1.15625 C 5.1875 -1.21875 5.425781 -1.316406 5.65625 -1.453125 C 5.832031 -1.566406 5.992188 -1.601562 6.140625 -1.5625 C 6.285156 -1.53125 6.394531 -1.445312 6.46875 -1.3125 C 6.539062 -1.1875 6.5625 -1.050781 6.53125 -0.90625 C 6.5 -0.757812 6.40625 -0.628906 6.25 -0.515625 C 5.976562 -0.316406 5.65625 -0.160156 5.28125 -0.046875 C 4.90625 0.0546875 4.519531 0.109375 4.125 0.109375 Z M 4.125 0.109375 "/></g></g></g><g fill="#ffffff" fill-opacity="1"><g transform="translate(66.217607, 37.307835)"><g/></g></g><g fill="#ffffff" fill-opacity="1"><g transform="translate(70.494626, 37.307835)"><g><path d="M 3.171875 0.078125 C 2.734375 0.078125 2.515625 -0.144531 2.515625 -0.59375 L 2.515625 -6.09375 L 0.53125 -6.09375 C 0.15625 -6.09375 -0.03125 -6.28125 -0.03125 -6.65625 C -0.03125 -7.007812 0.15625 -7.1875 0.53125 -7.1875 L 5.8125 -7.1875 C 6.1875 -7.1875 6.375 -7.007812 6.375 -6.65625 C 6.375 -6.28125 6.1875 -6.09375 5.8125 -6.09375 L 3.828125 -6.09375 L 3.828125 -0.59375 C 3.828125 -0.144531 3.609375 0.078125 3.171875 0.078125 Z M 3.171875 0.078125 "/></g></g></g><g fill="#ffffff" fill-opacity="1"><g transform="translate(78.343952, 37.307835)"><g><path d="M 1.4375 0.078125 C 1 0.078125 0.78125 -0.144531 0.78125 -0.59375 L 0.78125 -6.59375 C 0.78125 -7.050781 1 -7.28125 1.4375 -7.28125 C 1.875 -7.28125 2.09375 -7.050781 2.09375 -6.59375 L 2.09375 -4.1875 L 5.796875 -4.1875 L 5.796875 -6.59375 C 5.796875 -7.050781 6.015625 -7.28125 6.453125 -7.28125 C 6.878906 -7.28125 7.09375 -7.050781 7.09375 -6.59375 L 7.09375 -0.59375 C 7.09375 -0.144531 6.878906 0.078125 6.453125 0.078125 C 6.015625 0.078125 5.796875 -0.144531 5.796875 -0.59375 L 5.796875 -3.109375 L 2.09375 -3.109375 L 2.09375 -0.59375 C 2.09375 -0.144531 1.875 0.078125 1.4375 0.078125 Z M 1.4375 0.078125 "/></g></g></g><g fill="#ffffff" fill-opacity="1"><g transform="translate(87.744677, 37.307835)"><g><path d="M 4.015625 0.109375 C 3.316406 0.109375 2.707031 -0.0390625 2.1875 -0.34375 C 1.664062 -0.65625 1.257812 -1.085938 0.96875 -1.640625 C 0.6875 -2.203125 0.546875 -2.859375 0.546875 -3.609375 C 0.546875 -4.359375 0.6875 -5.007812 0.96875 -5.5625 C 1.257812 -6.113281 1.660156 -6.539062 2.171875 -6.84375 C 2.691406 -7.144531 3.304688 -7.296875 4.015625 -7.296875 C 4.710938 -7.296875 5.316406 -7.144531 5.828125 -6.84375 C 6.347656 -6.539062 6.75 -6.113281 7.03125 -5.5625 C 7.320312 -5.007812 7.46875 -4.359375 7.46875 -3.609375 C 7.46875 -2.859375 7.320312 -2.203125 7.03125 -1.640625 C 6.75 -1.085938 6.347656 -0.65625 5.828125 -0.34375 C 5.316406 -0.0390625 4.710938 0.109375 4.015625 0.109375 Z M 4.015625 -1.015625 C 4.671875 -1.015625 5.179688 -1.242188 5.546875 -1.703125 C 5.910156 -2.160156 6.09375 -2.796875 6.09375 -3.609375 C 6.09375 -4.421875 5.910156 -5.050781 5.546875 -5.5 C 5.191406 -5.945312 4.679688 -6.171875 4.015625 -6.171875 C 3.347656 -6.171875 2.832031 -5.945312 2.46875 -5.5 C 2.101562 -5.050781 1.921875 -4.421875 1.921875 -3.609375 C 1.921875 -2.796875 2.101562 -2.160156 2.46875 -1.703125 C 2.832031 -1.242188 3.347656 -1.015625 4.015625 -1.015625 Z M 4.015625 -1.015625 "/></g></g></g><g fill="#ffffff" fill-opacity="1"><g transform="translate(97.267881, 37.307835)"><g><path d="M 1.390625 0.078125 C 0.984375 0.078125 0.78125 -0.128906 0.78125 -0.546875 L 0.78125 -6.625 C 0.78125 -6.832031 0.832031 -6.992188 0.9375 -7.109375 C 1.050781 -7.222656 1.191406 -7.28125 1.359375 -7.28125 C 1.515625 -7.28125 1.628906 -7.25 1.703125 -7.1875 C 1.785156 -7.125 1.878906 -7.023438 1.984375 -6.890625 L 5.625 -2.171875 L 5.625 -6.65625 C 5.625 -7.070312 5.832031 -7.28125 6.25 -7.28125 C 6.644531 -7.28125 6.84375 -7.070312 6.84375 -6.65625 L 6.84375 -0.53125 C 6.84375 -0.34375 6.796875 -0.191406 6.703125 -0.078125 C 6.609375 0.0234375 6.476562 0.078125 6.3125 0.078125 C 6.15625 0.078125 6.03125 0.046875 5.9375 -0.015625 C 5.851562 -0.078125 5.753906 -0.175781 5.640625 -0.3125 L 2 -5.046875 L 2 -0.546875 C 2 -0.128906 1.796875 0.078125 1.390625 0.078125 Z M 1.390625 0.078125 "/></g></g></g><g fill="#ffffff" fill-opacity="1"><g transform="translate(106.413436, 37.307835)"><g><path d="M 4.25 0.109375 C 3.445312 0.109375 2.769531 -0.0390625 2.21875 -0.34375 C 1.675781 -0.644531 1.257812 -1.070312 0.96875 -1.625 C 0.6875 -2.175781 0.546875 -2.828125 0.546875 -3.578125 C 0.546875 -4.335938 0.691406 -4.992188 0.984375 -5.546875 C 1.273438 -6.109375 1.695312 -6.539062 2.25 -6.84375 C 2.800781 -7.144531 3.460938 -7.296875 4.234375 -7.296875 C 4.617188 -7.296875 5 -7.25 5.375 -7.15625 C 5.757812 -7.0625 6.125 -6.90625 6.46875 -6.6875 C 6.613281 -6.601562 6.695312 -6.488281 6.71875 -6.34375 C 6.75 -6.195312 6.726562 -6.054688 6.65625 -5.921875 C 6.59375 -5.796875 6.492188 -5.707031 6.359375 -5.65625 C 6.222656 -5.601562 6.070312 -5.625 5.90625 -5.71875 C 5.644531 -5.875 5.378906 -5.984375 5.109375 -6.046875 C 4.847656 -6.117188 4.554688 -6.15625 4.234375 -6.15625 C 3.472656 -6.15625 2.894531 -5.929688 2.5 -5.484375 C 2.113281 -5.046875 1.921875 -4.410156 1.921875 -3.578125 C 1.921875 -2.742188 2.117188 -2.109375 2.515625 -1.671875 C 2.921875 -1.234375 3.519531 -1.015625 4.3125 -1.015625 C 4.53125 -1.015625 4.753906 -1.03125 4.984375 -1.0625 C 5.222656 -1.101562 5.457031 -1.164062 5.6875 -1.25 L 5.6875 -2.921875 L 4.578125 -2.921875 C 4.222656 -2.921875 4.046875 -3.082031 4.046875 -3.40625 C 4.046875 -3.726562 4.222656 -3.890625 4.578125 -3.890625 L 6.25 -3.890625 C 6.601562 -3.890625 6.78125 -3.710938 6.78125 -3.359375 L 6.78125 -0.875 C 6.78125 -0.5625 6.660156 -0.363281 6.421875 -0.28125 C 6.117188 -0.164062 5.773438 -0.0703125 5.390625 0 C 5.003906 0.0703125 4.625 0.109375 4.25 0.109375 Z M 4.25 0.109375 "/></g></g></g></svg>