<svg xmlns="http://www.w3.org/2000/svg" xmlns:xlink="http://www.w3.org/1999/xlink" width="62" zoomAndPan="magnify" viewBox="0 0 46.5 46.5" height="62" preserveAspectRatio="xMidYMid meet" version="1.0"><defs><g/><clipPath id="c3746d1463"><path d="M 1.589844 10.425781 L 19 10.425781 L 19 19 L 1.589844 19 Z M 1.589844 10.425781 " clip-rule="nonzero"/></clipPath><clipPath id="7c25c3e881"><path d="M 21 10.425781 L 34 10.425781 L 34 14 L 21 14 Z M 21 10.425781 " clip-rule="nonzero"/></clipPath><clipPath id="2ef0807ff5"><path d="M 30 19 L 44.339844 19 L 44.339844 22 L 30 22 Z M 30 19 " clip-rule="nonzero"/></clipPath><clipPath id="6ff15b6289"><path d="M 36 21 L 42 21 L 42 23.175781 L 36 23.175781 Z M 36 21 " clip-rule="nonzero"/></clipPath></defs><g clip-path="url(#c3746d1463)"><path fill="#000000" d="M 17.199219 10.539062 C 17.507812 10.488281 17.816406 10.433594 18.132812 10.429688 C 17.230469 10.566406 16.335938 10.785156 15.484375 11.117188 C 14.699219 11.417969 13.957031 11.835938 13.285156 12.34375 C 12.660156 12.808594 12.101562 13.355469 11.507812 13.859375 C 10.839844 14.410156 10.109375 14.886719 9.355469 15.3125 C 7.738281 16.21875 6.011719 16.914062 4.25 17.492188 C 3.492188 17.738281 2.726562 17.964844 1.953125 18.160156 C 1.839844 18.1875 1.726562 18.226562 1.609375 18.234375 C 2.050781 18.125 2.484375 17.988281 2.921875 17.859375 C 4.765625 17.292969 6.578125 16.609375 8.292969 15.71875 C 9.5 15.085938 10.660156 14.347656 11.675781 13.433594 C 11.917969 13.222656 12.136719 12.988281 12.382812 12.78125 C 13.738281 11.605469 15.4375 10.859375 17.199219 10.539062 Z M 17.199219 10.539062 " fill-opacity="1" fill-rule="nonzero"/></g><g clip-path="url(#7c25c3e881)"><path fill="#000000" d="M 21.476562 10.683594 C 23.433594 10.554688 25.398438 10.707031 27.332031 10.980469 C 27.839844 11.019531 28.3125 11.214844 28.789062 11.371094 C 30.285156 11.882812 31.761719 12.445312 33.195312 13.109375 C 31.972656 13 30.742188 12.964844 29.511719 12.960938 C 28.046875 12.957031 26.578125 13 25.109375 13.070312 C 24.761719 13.089844 24.410156 13.101562 24.0625 13.039062 C 23.789062 12.988281 23.519531 12.882812 23.304688 12.699219 C 22.71875 12.179688 22.167969 11.621094 21.535156 11.152344 C 21.425781 11.066406 21.292969 11.007812 21.214844 10.886719 C 21.183594 10.847656 21.179688 10.785156 21.222656 10.753906 C 21.296875 10.699219 21.390625 10.691406 21.476562 10.683594 Z M 21.476562 10.683594 " fill-opacity="1" fill-rule="nonzero"/></g><path fill="#000000" d="M 18.347656 11.039062 C 18.847656 10.988281 19.359375 11.011719 19.839844 11.152344 C 20.484375 11.335938 21.0625 11.707031 21.535156 12.175781 C 21.933594 12.566406 22.253906 13.027344 22.523438 13.511719 C 20.589844 13.589844 18.660156 13.660156 16.726562 13.742188 C 16.460938 13.164062 16.117188 12.613281 15.664062 12.164062 C 15.589844 12.085938 15.488281 12.023438 15.453125 11.914062 C 15.449219 11.828125 15.542969 11.792969 15.605469 11.761719 C 15.933594 11.625 16.269531 11.511719 16.609375 11.40625 C 17.175781 11.234375 17.753906 11.097656 18.347656 11.039062 Z M 18.347656 11.039062 " fill-opacity="1" fill-rule="nonzero"/><path fill="#000000" d="M 14.566406 12.242188 C 14.691406 12.179688 14.816406 12.09375 14.964844 12.085938 C 15.074219 12.097656 15.164062 12.183594 15.246094 12.25 C 15.496094 12.472656 15.6875 12.75 15.871094 13.027344 C 15.972656 13.183594 16.070312 13.34375 16.160156 13.507812 C 16.191406 13.570312 16.226562 13.644531 16.195312 13.710938 C 16.148438 13.777344 16.058594 13.769531 15.984375 13.773438 C 15.457031 13.765625 14.925781 13.773438 14.398438 13.789062 C 13.890625 13.8125 13.382812 13.839844 12.878906 13.921875 C 12.699219 13.953125 12.511719 13.988281 12.34375 14.066406 C 12.730469 13.40625 13.332031 12.898438 13.996094 12.53125 C 14.179688 12.425781 14.375 12.339844 14.566406 12.242188 Z M 14.566406 12.242188 " fill-opacity="1" fill-rule="nonzero"/><path fill="#000000" d="M 26.855469 13.398438 C 28.015625 13.371094 29.171875 13.339844 30.328125 13.285156 C 31.578125 13.246094 32.828125 13.261719 34.074219 13.378906 C 35.148438 13.472656 36.222656 13.585938 37.296875 13.726562 C 37.859375 13.804688 38.425781 13.886719 38.984375 13.996094 C 39.8125 14.15625 40.648438 14.320312 41.425781 14.660156 C 41.660156 14.765625 41.886719 14.882812 42.105469 15.019531 C 41.664062 14.847656 41.210938 14.703125 40.746094 14.613281 C 40.550781 14.574219 40.347656 14.554688 40.152344 14.515625 C 39.925781 14.496094 39.703125 14.515625 39.476562 14.515625 C 38.777344 14.519531 38.078125 14.542969 37.386719 14.636719 C 37.296875 14.652344 37.191406 14.667969 37.136719 14.746094 C 37.085938 14.828125 37.121094 14.921875 37.160156 15 C 37.398438 15.421875 37.613281 15.859375 37.835938 16.289062 C 37.988281 16.59375 38.148438 16.898438 38.296875 17.203125 C 37.691406 16.238281 36.855469 15.421875 35.886719 14.820312 C 35.71875 14.71875 35.550781 14.621094 35.375 14.539062 C 35.136719 14.429688 34.875 14.371094 34.617188 14.328125 C 34.117188 14.265625 33.625 14.15625 33.132812 14.074219 C 30.765625 13.667969 28.371094 13.425781 25.96875 13.421875 C 26.265625 13.402344 26.5625 13.40625 26.855469 13.398438 Z M 26.855469 13.398438 " fill-opacity="1" fill-rule="nonzero"/><path fill="#000000" d="M 32.757812 14.707031 C 33.132812 14.785156 33.511719 14.921875 33.796875 15.183594 C 33.964844 15.332031 34.085938 15.53125 34.140625 15.746094 C 34.175781 15.886719 34.15625 16.046875 34.070312 16.167969 C 33.960938 16.316406 33.792969 16.402344 33.621094 16.457031 C 33.777344 16.335938 33.9375 16.203125 34.003906 16.015625 C 34.066406 15.835938 34.007812 15.640625 33.898438 15.492188 C 33.726562 15.261719 33.484375 15.09375 33.242188 14.949219 C 33.085938 14.859375 32.925781 14.777344 32.757812 14.707031 Z M 32.757812 14.707031 " fill-opacity="1" fill-rule="nonzero"/><path fill="#000000" d="M 39.957031 14.707031 C 40.0625 14.695312 40.167969 14.6875 40.273438 14.699219 C 40.765625 14.800781 41.265625 14.886719 41.746094 15.042969 C 41.886719 15.089844 42.027344 15.144531 42.140625 15.242188 C 42.292969 15.363281 42.390625 15.539062 42.453125 15.71875 C 42.566406 16.042969 42.683594 16.367188 42.761719 16.703125 C 42.792969 16.847656 42.832031 17.003906 42.757812 17.140625 C 42.714844 17.230469 42.613281 17.273438 42.519531 17.265625 C 41.574219 17.195312 40.628906 17.160156 39.683594 17.144531 C 39.4375 17.132812 39.1875 17.167969 38.957031 17.085938 C 38.691406 16.996094 38.5 16.777344 38.347656 16.558594 C 38.09375 16.191406 37.867188 15.804688 37.65625 15.410156 C 37.59375 15.277344 37.53125 15.125 37.570312 14.976562 C 37.601562 14.867188 37.71875 14.820312 37.820312 14.8125 C 38.53125 14.742188 39.246094 14.742188 39.957031 14.707031 Z M 39.957031 14.707031 " fill-opacity="1" fill-rule="nonzero"/><path fill="#000000" d="M 32.171875 14.730469 C 32.542969 14.703125 32.890625 14.871094 33.203125 15.054688 C 33.398438 15.171875 33.589844 15.316406 33.722656 15.507812 C 33.832031 15.664062 33.886719 15.859375 33.851562 16.046875 C 33.800781 16.21875 33.648438 16.335938 33.480469 16.386719 C 33.269531 16.445312 33.046875 16.4375 32.832031 16.398438 C 32.324219 16.300781 31.890625 15.933594 31.683594 15.464844 C 31.621094 15.324219 31.609375 15.144531 31.710938 15.019531 C 31.828125 14.878906 31.984375 14.75 32.171875 14.730469 Z M 32.171875 14.730469 " fill-opacity="1" fill-rule="nonzero"/><path fill="#000000" d="M 34.585938 14.742188 C 34.949219 14.679688 35.316406 14.824219 35.613281 15.027344 C 35.804688 15.15625 35.972656 15.316406 36.128906 15.484375 C 36.269531 15.632812 36.363281 15.824219 36.414062 16.019531 C 36.449219 16.175781 36.449219 16.359375 36.347656 16.496094 C 36.222656 16.648438 36.011719 16.699219 35.824219 16.695312 C 35.316406 16.648438 34.835938 16.371094 34.539062 15.960938 C 34.429688 15.8125 34.339844 15.652344 34.277344 15.480469 C 34.222656 15.324219 34.207031 15.144531 34.273438 14.992188 C 34.328125 14.863281 34.449219 14.765625 34.585938 14.742188 Z M 34.585938 14.742188 " fill-opacity="1" fill-rule="nonzero"/><path fill="#000000" d="M 35.433594 14.796875 C 35.757812 14.972656 36.078125 15.15625 36.355469 15.398438 C 36.496094 15.523438 36.628906 15.664062 36.703125 15.839844 C 36.757812 15.972656 36.765625 16.132812 36.699219 16.261719 C 36.648438 16.367188 36.5625 16.449219 36.46875 16.519531 C 36.566406 16.347656 36.589844 16.136719 36.527344 15.949219 C 36.429688 15.652344 36.207031 15.414062 35.980469 15.207031 C 35.8125 15.050781 35.621094 14.925781 35.433594 14.796875 Z M 35.433594 14.796875 " fill-opacity="1" fill-rule="nonzero"/><path fill="#000000" d="M 42.550781 15.480469 C 42.558594 15.476562 42.578125 15.464844 42.585938 15.460938 C 42.675781 15.480469 42.746094 15.546875 42.808594 15.609375 C 42.996094 15.808594 43.125 16.050781 43.238281 16.296875 C 43.308594 16.472656 43.390625 16.644531 43.417969 16.832031 C 43.425781 16.910156 43.433594 17.007812 43.371094 17.070312 C 43.335938 17.09375 43.292969 17.066406 43.265625 17.039062 C 43.023438 16.800781 42.902344 16.472656 42.75 16.175781 C 42.667969 16.003906 42.578125 15.828125 42.535156 15.644531 C 42.527344 15.589844 42.511719 15.527344 42.550781 15.480469 Z M 42.550781 15.480469 " fill-opacity="1" fill-rule="nonzero"/><path fill="#000000" d="M 26.234375 16.070312 C 26.644531 16 27.078125 16 27.46875 16.152344 C 27.8125 16.28125 28.109375 16.519531 28.339844 16.800781 C 28.625 17.15625 28.816406 17.578125 28.941406 18.015625 C 29.078125 18.492188 29.144531 18.988281 29.136719 19.484375 C 29.109375 19.929688 29.050781 20.371094 28.933594 20.796875 C 28.824219 21.199219 28.660156 21.589844 28.40625 21.925781 C 28.183594 22.21875 27.886719 22.460938 27.546875 22.601562 C 27.160156 22.765625 26.726562 22.804688 26.308594 22.75 C 26.671875 22.71875 27.027344 22.601562 27.320312 22.382812 C 27.652344 22.136719 27.890625 21.785156 28.054688 21.410156 C 28.265625 20.925781 28.375 20.398438 28.433594 19.875 C 28.5 19.363281 28.492188 18.84375 28.429688 18.332031 C 28.371094 17.914062 28.269531 17.492188 28.074219 17.113281 C 27.90625 16.789062 27.65625 16.496094 27.335938 16.3125 C 27.007812 16.113281 26.617188 16.046875 26.234375 16.070312 Z M 26.234375 16.070312 " fill-opacity="1" fill-rule="nonzero"/><path fill="#000000" d="M 12.558594 17.207031 C 12.75 17.535156 12.953125 17.855469 13.21875 18.125 C 13.375 18.277344 13.554688 18.410156 13.761719 18.488281 C 13.976562 18.574219 14.210938 18.59375 14.441406 18.613281 C 17.226562 18.78125 20.007812 18.9375 22.792969 19.101562 C 22.960938 19.117188 23.132812 19.109375 23.300781 19.136719 C 21.980469 19.109375 20.664062 19.097656 19.34375 19.074219 C 17.648438 19.046875 15.957031 19.019531 14.261719 18.996094 C 14.042969 18.984375 13.820312 19.007812 13.601562 18.960938 C 13.277344 18.886719 13.027344 18.617188 12.925781 18.308594 C 12.804688 17.941406 12.671875 17.578125 12.558594 17.207031 Z M 12.558594 17.207031 " fill-opacity="1" fill-rule="nonzero"/><path fill="#000000" d="M 14.554688 19.511719 C 14.652344 19.5 14.75 19.476562 14.851562 19.476562 C 16.6875 19.550781 18.527344 19.613281 20.367188 19.667969 C 21.03125 19.6875 21.699219 19.707031 22.363281 19.710938 C 22.4375 19.710938 22.511719 19.71875 22.585938 19.730469 C 22.324219 19.722656 22.058594 19.75 21.796875 19.753906 C 20.125 19.824219 18.453125 19.828125 16.78125 19.820312 C 15.460938 19.8125 14.144531 19.789062 12.828125 19.757812 C 13.402344 19.671875 13.980469 19.59375 14.554688 19.511719 Z M 14.554688 19.511719 " fill-opacity="1" fill-rule="nonzero"/><g clip-path="url(#2ef0807ff5)"><path fill="#000000" d="M 30.007812 19.714844 C 30.023438 19.671875 30.066406 19.679688 30.101562 19.679688 C 31.085938 19.726562 32.074219 19.769531 33.0625 19.746094 C 33.21875 20.050781 33.480469 20.300781 33.804688 20.417969 C 34.011719 20.5 34.238281 20.53125 34.460938 20.519531 C 36.242188 20.632812 38.027344 20.726562 39.816406 20.699219 C 40.453125 20.675781 41.089844 20.636719 41.722656 20.578125 C 42.214844 20.53125 42.707031 20.472656 43.195312 20.371094 C 43.402344 20.324219 43.613281 20.273438 43.808594 20.191406 C 43.910156 20.144531 44.019531 20.09375 44.082031 19.996094 C 44.183594 20.128906 44.230469 20.289062 44.277344 20.445312 C 44.320312 20.59375 44.292969 20.765625 44.1875 20.882812 C 44.042969 21.054688 43.824219 21.140625 43.613281 21.214844 C 43.175781 21.351562 42.71875 21.410156 42.261719 21.464844 C 41.082031 21.589844 39.894531 21.625 38.707031 21.664062 C 36.253906 21.746094 33.796875 21.671875 31.351562 21.464844 C 30.957031 21.429688 30.5625 21.394531 30.167969 21.347656 C 30.140625 21.339844 30.089844 21.34375 30.082031 21.300781 C 30.085938 20.773438 30.054688 20.242188 30.007812 19.714844 Z M 30.007812 19.714844 " fill-opacity="1" fill-rule="nonzero"/></g><path fill="#000000" d="M 28.289062 22.363281 C 28.953125 21.792969 29.292969 20.914062 29.332031 20.050781 C 29.390625 20.289062 29.386719 20.535156 29.402344 20.777344 C 29.410156 21.101562 29.421875 21.429688 29.402344 21.753906 C 29.414062 21.820312 29.5 21.835938 29.558594 21.851562 C 29.839844 21.894531 30.128906 21.890625 30.414062 21.910156 C 30.332031 22.046875 30.210938 22.148438 30.101562 22.257812 C 29.933594 22.417969 29.757812 22.574219 29.574219 22.722656 C 29.367188 22.890625 29.082031 22.878906 28.832031 22.914062 C 28.289062 22.949219 27.746094 22.992188 27.203125 22.941406 C 27.601562 22.828125 27.976562 22.636719 28.289062 22.363281 Z M 28.289062 22.363281 " fill-opacity="1" fill-rule="nonzero"/><path fill="#000000" d="M 8.5625 20.496094 C 9.0625 20.535156 9.5625 20.597656 10.0625 20.644531 C 12.375 20.875 14.691406 21.097656 17.007812 21.300781 C 18.554688 21.433594 20.105469 21.5625 21.660156 21.652344 C 22.039062 21.664062 22.421875 21.695312 22.800781 21.699219 C 22.1875 21.707031 21.570312 21.6875 20.957031 21.683594 C 19.398438 21.671875 17.839844 21.660156 16.28125 21.652344 C 16.167969 21.652344 16.058594 21.65625 15.945312 21.648438 C 13.484375 21.265625 11.023438 20.875 8.5625 20.496094 Z M 8.5625 20.496094 " fill-opacity="1" fill-rule="nonzero"/><g clip-path="url(#6ff15b6289)"><path fill="#000000" d="M 40.042969 22.035156 C 40.527344 22.023438 41.007812 22 41.488281 21.960938 C 41.40625 22.109375 41.265625 22.214844 41.136719 22.324219 C 40.539062 22.789062 39.808594 23.105469 39.046875 23.148438 C 38.558594 23.175781 38.066406 23.082031 37.628906 22.875 C 37.203125 22.675781 36.828125 22.386719 36.503906 22.050781 C 37.683594 22.0625 38.863281 22.066406 40.042969 22.035156 Z M 40.042969 22.035156 " fill-opacity="1" fill-rule="nonzero"/></g><g fill="#000000" fill-opacity="1"><g transform="translate(0.155543, 30.331504)"><g><path d="M 0.765625 0.046875 C 0.546875 0.046875 0.4375 -0.0664062 0.4375 -0.296875 L 0.4375 -3.65625 C 0.4375 -3.769531 0.460938 -3.859375 0.515625 -3.921875 C 0.578125 -3.984375 0.65625 -4.015625 0.75 -4.015625 C 0.832031 -4.015625 0.894531 -4 0.9375 -3.96875 C 0.976562 -3.9375 1.03125 -3.878906 1.09375 -3.796875 L 3.109375 -1.203125 L 3.109375 -3.671875 C 3.109375 -3.898438 3.21875 -4.015625 3.4375 -4.015625 C 3.664062 -4.015625 3.78125 -3.898438 3.78125 -3.671875 L 3.78125 -0.296875 C 3.78125 -0.191406 3.75 -0.109375 3.6875 -0.046875 C 3.632812 0.015625 3.566406 0.046875 3.484375 0.046875 C 3.398438 0.046875 3.332031 0.03125 3.28125 0 C 3.226562 -0.0390625 3.171875 -0.0976562 3.109375 -0.171875 L 1.109375 -2.78125 L 1.109375 -0.296875 C 1.109375 -0.0664062 0.992188 0.046875 0.765625 0.046875 Z M 0.765625 0.046875 "/></g></g></g><g fill="#000000" fill-opacity="1"><g transform="translate(5.193309, 30.331504)"><g><path d="M 2.34375 0.0625 C 1.90625 0.0625 1.535156 -0.0195312 1.234375 -0.1875 C 0.929688 -0.351562 0.695312 -0.585938 0.53125 -0.890625 C 0.375 -1.191406 0.296875 -1.550781 0.296875 -1.96875 C 0.296875 -2.394531 0.375 -2.757812 0.53125 -3.0625 C 0.695312 -3.363281 0.929688 -3.597656 1.234375 -3.765625 C 1.546875 -3.929688 1.910156 -4.015625 2.328125 -4.015625 C 2.546875 -4.015625 2.757812 -3.988281 2.96875 -3.9375 C 3.175781 -3.894531 3.375 -3.8125 3.5625 -3.6875 C 3.644531 -3.632812 3.691406 -3.566406 3.703125 -3.484375 C 3.722656 -3.410156 3.710938 -3.335938 3.671875 -3.265625 C 3.628906 -3.191406 3.570312 -3.140625 3.5 -3.109375 C 3.425781 -3.085938 3.34375 -3.101562 3.25 -3.15625 C 3.113281 -3.238281 2.972656 -3.296875 2.828125 -3.328125 C 2.679688 -3.367188 2.515625 -3.390625 2.328125 -3.390625 C 1.910156 -3.390625 1.59375 -3.265625 1.375 -3.015625 C 1.164062 -2.773438 1.0625 -2.425781 1.0625 -1.96875 C 1.0625 -1.507812 1.171875 -1.160156 1.390625 -0.921875 C 1.609375 -0.679688 1.9375 -0.5625 2.375 -0.5625 C 2.5 -0.5625 2.625 -0.570312 2.75 -0.59375 C 2.882812 -0.613281 3.015625 -0.644531 3.140625 -0.6875 L 3.140625 -1.609375 L 2.515625 -1.609375 C 2.328125 -1.609375 2.234375 -1.695312 2.234375 -1.875 C 2.234375 -2.050781 2.328125 -2.140625 2.515625 -2.140625 L 3.453125 -2.140625 C 3.640625 -2.140625 3.734375 -2.039062 3.734375 -1.84375 L 3.734375 -0.484375 C 3.734375 -0.304688 3.664062 -0.195312 3.53125 -0.15625 C 3.375 -0.09375 3.1875 -0.0390625 2.96875 0 C 2.757812 0.0390625 2.550781 0.0625 2.34375 0.0625 Z M 2.34375 0.0625 "/></g></g></g><g fill="#000000" fill-opacity="1"><g transform="translate(10.163612, 30.331504)"><g><path d="M 2.203125 0.0625 C 1.828125 0.0625 1.492188 -0.0195312 1.203125 -0.1875 C 0.921875 -0.363281 0.695312 -0.601562 0.53125 -0.90625 C 0.375 -1.207031 0.296875 -1.566406 0.296875 -1.984375 C 0.296875 -2.398438 0.375 -2.757812 0.53125 -3.0625 C 0.695312 -3.363281 0.921875 -3.597656 1.203125 -3.765625 C 1.484375 -3.929688 1.816406 -4.015625 2.203125 -4.015625 C 2.597656 -4.015625 2.9375 -3.929688 3.21875 -3.765625 C 3.5 -3.597656 3.71875 -3.363281 3.875 -3.0625 C 4.039062 -2.757812 4.125 -2.398438 4.125 -1.984375 C 4.125 -1.566406 4.039062 -1.207031 3.875 -0.90625 C 3.71875 -0.601562 3.5 -0.363281 3.21875 -0.1875 C 2.9375 -0.0195312 2.597656 0.0625 2.203125 0.0625 Z M 2.203125 -0.5625 C 2.566406 -0.5625 2.847656 -0.6875 3.046875 -0.9375 C 3.253906 -1.1875 3.359375 -1.535156 3.359375 -1.984375 C 3.359375 -2.429688 3.257812 -2.78125 3.0625 -3.03125 C 2.863281 -3.28125 2.578125 -3.40625 2.203125 -3.40625 C 1.847656 -3.40625 1.566406 -3.28125 1.359375 -3.03125 C 1.160156 -2.78125 1.0625 -2.429688 1.0625 -1.984375 C 1.0625 -1.535156 1.160156 -1.1875 1.359375 -0.9375 C 1.566406 -0.6875 1.847656 -0.5625 2.203125 -0.5625 Z M 2.203125 -0.5625 "/></g></g></g><g fill="#000000" fill-opacity="1"><g transform="translate(15.409401, 30.331504)"><g><path d="M 2.28125 0.0625 C 1.863281 0.0625 1.507812 -0.0195312 1.21875 -0.1875 C 0.925781 -0.351562 0.695312 -0.585938 0.53125 -0.890625 C 0.375 -1.203125 0.296875 -1.566406 0.296875 -1.984375 C 0.296875 -2.398438 0.375 -2.757812 0.53125 -3.0625 C 0.695312 -3.363281 0.925781 -3.597656 1.21875 -3.765625 C 1.507812 -3.929688 1.863281 -4.015625 2.28125 -4.015625 C 2.488281 -4.015625 2.691406 -3.988281 2.890625 -3.9375 C 3.085938 -3.882812 3.257812 -3.8125 3.40625 -3.71875 C 3.507812 -3.65625 3.566406 -3.578125 3.578125 -3.484375 C 3.597656 -3.398438 3.585938 -3.320312 3.546875 -3.25 C 3.503906 -3.175781 3.441406 -3.125 3.359375 -3.09375 C 3.273438 -3.070312 3.1875 -3.097656 3.09375 -3.171875 C 2.96875 -3.242188 2.835938 -3.296875 2.703125 -3.328125 C 2.578125 -3.359375 2.441406 -3.375 2.296875 -3.375 C 1.898438 -3.375 1.59375 -3.253906 1.375 -3.015625 C 1.164062 -2.773438 1.0625 -2.429688 1.0625 -1.984375 C 1.0625 -1.535156 1.164062 -1.1875 1.375 -0.9375 C 1.59375 -0.695312 1.898438 -0.578125 2.296875 -0.578125 C 2.441406 -0.578125 2.582031 -0.59375 2.71875 -0.625 C 2.863281 -0.664062 2.992188 -0.722656 3.109375 -0.796875 C 3.210938 -0.867188 3.300781 -0.890625 3.375 -0.859375 C 3.457031 -0.835938 3.519531 -0.789062 3.5625 -0.71875 C 3.601562 -0.65625 3.613281 -0.582031 3.59375 -0.5 C 3.582031 -0.414062 3.535156 -0.34375 3.453125 -0.28125 C 3.296875 -0.175781 3.113281 -0.09375 2.90625 -0.03125 C 2.695312 0.03125 2.488281 0.0625 2.28125 0.0625 Z M 2.28125 0.0625 "/></g></g></g><g fill="#000000" fill-opacity="1"><g transform="translate(20.064857, 30.331504)"><g/></g></g><g fill="#000000" fill-opacity="1"><g transform="translate(22.420829, 30.331504)"><g><path d="M 1.75 0.046875 C 1.507812 0.046875 1.390625 -0.078125 1.390625 -0.328125 L 1.390625 -3.359375 L 0.296875 -3.359375 C 0.0859375 -3.359375 -0.015625 -3.460938 -0.015625 -3.671875 C -0.015625 -3.867188 0.0859375 -3.96875 0.296875 -3.96875 L 3.203125 -3.96875 C 3.410156 -3.96875 3.515625 -3.867188 3.515625 -3.671875 C 3.515625 -3.460938 3.410156 -3.359375 3.203125 -3.359375 L 2.109375 -3.359375 L 2.109375 -0.328125 C 2.109375 -0.078125 1.988281 0.046875 1.75 0.046875 Z M 1.75 0.046875 "/></g></g></g><g fill="#000000" fill-opacity="1"><g transform="translate(26.744577, 30.331504)"><g><path d="M 0.796875 0.046875 C 0.554688 0.046875 0.4375 -0.078125 0.4375 -0.328125 L 0.4375 -3.640625 C 0.4375 -3.890625 0.554688 -4.015625 0.796875 -4.015625 C 1.035156 -4.015625 1.15625 -3.890625 1.15625 -3.640625 L 1.15625 -2.3125 L 3.1875 -2.3125 L 3.1875 -3.640625 C 3.1875 -3.890625 3.3125 -4.015625 3.5625 -4.015625 C 3.800781 -4.015625 3.921875 -3.890625 3.921875 -3.640625 L 3.921875 -0.328125 C 3.921875 -0.078125 3.800781 0.046875 3.5625 0.046875 C 3.3125 0.046875 3.1875 -0.078125 3.1875 -0.328125 L 3.1875 -1.703125 L 1.15625 -1.703125 L 1.15625 -0.328125 C 1.15625 -0.078125 1.035156 0.046875 0.796875 0.046875 Z M 0.796875 0.046875 "/></g></g></g><g fill="#000000" fill-opacity="1"><g transform="translate(31.922901, 30.331504)"><g><path d="M 2.203125 0.0625 C 1.828125 0.0625 1.492188 -0.0195312 1.203125 -0.1875 C 0.921875 -0.363281 0.695312 -0.601562 0.53125 -0.90625 C 0.375 -1.207031 0.296875 -1.566406 0.296875 -1.984375 C 0.296875 -2.398438 0.375 -2.757812 0.53125 -3.0625 C 0.695312 -3.363281 0.921875 -3.597656 1.203125 -3.765625 C 1.484375 -3.929688 1.816406 -4.015625 2.203125 -4.015625 C 2.597656 -4.015625 2.9375 -3.929688 3.21875 -3.765625 C 3.5 -3.597656 3.71875 -3.363281 3.875 -3.0625 C 4.039062 -2.757812 4.125 -2.398438 4.125 -1.984375 C 4.125 -1.566406 4.039062 -1.207031 3.875 -0.90625 C 3.71875 -0.601562 3.5 -0.363281 3.21875 -0.1875 C 2.9375 -0.0195312 2.597656 0.0625 2.203125 0.0625 Z M 2.203125 -0.5625 C 2.566406 -0.5625 2.847656 -0.6875 3.046875 -0.9375 C 3.253906 -1.1875 3.359375 -1.535156 3.359375 -1.984375 C 3.359375 -2.429688 3.257812 -2.78125 3.0625 -3.03125 C 2.863281 -3.28125 2.578125 -3.40625 2.203125 -3.40625 C 1.847656 -3.40625 1.566406 -3.28125 1.359375 -3.03125 C 1.160156 -2.78125 1.0625 -2.429688 1.0625 -1.984375 C 1.0625 -1.535156 1.160156 -1.1875 1.359375 -0.9375 C 1.566406 -0.6875 1.847656 -0.5625 2.203125 -0.5625 Z M 2.203125 -0.5625 "/></g></g></g><g fill="#000000" fill-opacity="1"><g transform="translate(37.16869, 30.331504)"><g><path d="M 0.765625 0.046875 C 0.546875 0.046875 0.4375 -0.0664062 0.4375 -0.296875 L 0.4375 -3.65625 C 0.4375 -3.769531 0.460938 -3.859375 0.515625 -3.921875 C 0.578125 -3.984375 0.65625 -4.015625 0.75 -4.015625 C 0.832031 -4.015625 0.894531 -4 0.9375 -3.96875 C 0.976562 -3.9375 1.03125 -3.878906 1.09375 -3.796875 L 3.109375 -1.203125 L 3.109375 -3.671875 C 3.109375 -3.898438 3.21875 -4.015625 3.4375 -4.015625 C 3.664062 -4.015625 3.78125 -3.898438 3.78125 -3.671875 L 3.78125 -0.296875 C 3.78125 -0.191406 3.75 -0.109375 3.6875 -0.046875 C 3.632812 0.015625 3.566406 0.046875 3.484375 0.046875 C 3.398438 0.046875 3.332031 0.03125 3.28125 0 C 3.226562 -0.0390625 3.171875 -0.0976562 3.109375 -0.171875 L 1.109375 -2.78125 L 1.109375 -0.296875 C 1.109375 -0.0664062 0.992188 0.046875 0.765625 0.046875 Z M 0.765625 0.046875 "/></g></g></g><g fill="#000000" fill-opacity="1"><g transform="translate(42.206455, 30.331504)"><g><path d="M 2.34375 0.0625 C 1.90625 0.0625 1.535156 -0.0195312 1.234375 -0.1875 C 0.929688 -0.351562 0.695312 -0.585938 0.53125 -0.890625 C 0.375 -1.191406 0.296875 -1.550781 0.296875 -1.96875 C 0.296875 -2.394531 0.375 -2.757812 0.53125 -3.0625 C 0.695312 -3.363281 0.929688 -3.597656 1.234375 -3.765625 C 1.546875 -3.929688 1.910156 -4.015625 2.328125 -4.015625 C 2.546875 -4.015625 2.757812 -3.988281 2.96875 -3.9375 C 3.175781 -3.894531 3.375 -3.8125 3.5625 -3.6875 C 3.644531 -3.632812 3.691406 -3.566406 3.703125 -3.484375 C 3.722656 -3.410156 3.710938 -3.335938 3.671875 -3.265625 C 3.628906 -3.191406 3.570312 -3.140625 3.5 -3.109375 C 3.425781 -3.085938 3.34375 -3.101562 3.25 -3.15625 C 3.113281 -3.238281 2.972656 -3.296875 2.828125 -3.328125 C 2.679688 -3.367188 2.515625 -3.390625 2.328125 -3.390625 C 1.910156 -3.390625 1.59375 -3.265625 1.375 -3.015625 C 1.164062 -2.773438 1.0625 -2.425781 1.0625 -1.96875 C 1.0625 -1.507812 1.171875 -1.160156 1.390625 -0.921875 C 1.609375 -0.679688 1.9375 -0.5625 2.375 -0.5625 C 2.5 -0.5625 2.625 -0.570312 2.75 -0.59375 C 2.882812 -0.613281 3.015625 -0.644531 3.140625 -0.6875 L 3.140625 -1.609375 L 2.515625 -1.609375 C 2.328125 -1.609375 2.234375 -1.695312 2.234375 -1.875 C 2.234375 -2.050781 2.328125 -2.140625 2.515625 -2.140625 L 3.453125 -2.140625 C 3.640625 -2.140625 3.734375 -2.039062 3.734375 -1.84375 L 3.734375 -0.484375 C 3.734375 -0.304688 3.664062 -0.195312 3.53125 -0.15625 C 3.375 -0.09375 3.1875 -0.0390625 2.96875 0 C 2.757812 0.0390625 2.550781 0.0625 2.34375 0.0625 Z M 2.34375 0.0625 "/></g></g></g></svg>