<svg xmlns="http://www.w3.org/2000/svg" xmlns:xlink="http://www.w3.org/1999/xlink" width="62" zoomAndPan="magnify" viewBox="0 0 46.5 46.5" height="62" preserveAspectRatio="xMidYMid meet" version="1.0"><defs><g/><clipPath id="5cc06fea64"><path d="M 0 7.046875 L 17 7.046875 L 17 16 L 0 16 Z M 0 7.046875 " clip-rule="nonzero"/></clipPath><clipPath id="60b49bdc43"><path d="M 19 7.046875 L 33 7.046875 L 33 11 L 19 11 Z M 19 7.046875 " clip-rule="nonzero"/></clipPath><clipPath id="cf3d8172ce"><path d="M 13 7.046875 L 21 7.046875 L 21 11 L 13 11 Z M 13 7.046875 " clip-rule="nonzero"/></clipPath><clipPath id="b3df6ab23b"><path d="M 29 17 L 45.085938 17 L 45.085938 20 L 29 20 Z M 29 17 " clip-rule="nonzero"/></clipPath><clipPath id="f682618dff"><path d="M 26 17 L 30 17 L 30 21.296875 L 26 21.296875 Z M 26 17 " clip-rule="nonzero"/></clipPath><clipPath id="fae3b5e0f9"><path d="M 36 19 L 42 19 L 42 21.296875 L 36 21.296875 Z M 36 19 " clip-rule="nonzero"/></clipPath><clipPath id="7f6a23a308"><path d="M 42 25 L 46.003906 25 L 46.003906 30 L 42 30 Z M 42 25 " clip-rule="nonzero"/></clipPath></defs><g clip-path="url(#5cc06fea64)"><path fill="#ffffff" d="M 15.09375 7.171875 C 15.433594 7.113281 15.773438 7.050781 16.121094 7.046875 C 15.125 7.199219 14.136719 7.445312 13.195312 7.816406 C 12.328125 8.152344 11.507812 8.617188 10.765625 9.1875 C 10.078125 9.707031 9.460938 10.316406 8.804688 10.878906 C 8.066406 11.5 7.261719 12.027344 6.429688 12.503906 C 4.640625 13.519531 2.730469 14.292969 0.789062 14.941406 C -0.0507812 15.214844 -0.894531 15.46875 -1.75 15.6875 C -1.875 15.714844 -2 15.761719 -2.128906 15.769531 C -1.640625 15.648438 -1.164062 15.492188 -0.683594 15.351562 C 1.355469 14.71875 3.359375 13.953125 5.25 12.957031 C 6.585938 12.253906 7.867188 11.425781 8.988281 10.402344 C 9.257812 10.167969 9.5 9.90625 9.769531 9.675781 C 11.269531 8.363281 13.148438 7.527344 15.09375 7.171875 Z M 15.09375 7.171875 " fill-opacity="1" fill-rule="nonzero"/></g><g clip-path="url(#60b49bdc43)"><path fill="#ffffff" d="M 19.816406 7.332031 C 21.976562 7.1875 24.148438 7.355469 26.285156 7.664062 C 26.84375 7.707031 27.367188 7.921875 27.894531 8.101562 C 29.546875 8.671875 31.179688 9.300781 32.761719 10.042969 C 31.410156 9.921875 30.050781 9.882812 28.695312 9.878906 C 27.070312 9.871094 25.449219 9.917969 23.832031 10 C 23.445312 10.019531 23.054688 10.035156 22.675781 9.960938 C 22.371094 9.90625 22.074219 9.789062 21.835938 9.585938 C 21.191406 9 20.578125 8.378906 19.882812 7.855469 C 19.761719 7.757812 19.613281 7.695312 19.527344 7.558594 C 19.492188 7.515625 19.488281 7.441406 19.539062 7.410156 C 19.617188 7.351562 19.722656 7.34375 19.816406 7.332031 Z M 19.816406 7.332031 " fill-opacity="1" fill-rule="nonzero"/></g><g clip-path="url(#cf3d8172ce)"><path fill="#ffffff" d="M 16.359375 7.726562 C 16.910156 7.671875 17.476562 7.695312 18.007812 7.855469 C 18.71875 8.0625 19.359375 8.476562 19.882812 9 C 20.320312 9.4375 20.675781 9.949219 20.972656 10.492188 C 18.839844 10.578125 16.703125 10.660156 14.570312 10.75 C 14.277344 10.101562 13.898438 9.488281 13.398438 8.988281 C 13.316406 8.898438 13.203125 8.828125 13.164062 8.707031 C 13.15625 8.613281 13.261719 8.570312 13.332031 8.535156 C 13.691406 8.382812 14.0625 8.257812 14.4375 8.140625 C 15.066406 7.945312 15.707031 7.792969 16.359375 7.726562 Z M 16.359375 7.726562 " fill-opacity="1" fill-rule="nonzero"/></g><path fill="#ffffff" d="M 12.183594 9.074219 C 12.324219 9.003906 12.460938 8.90625 12.621094 8.898438 C 12.746094 8.914062 12.839844 9.007812 12.933594 9.082031 C 13.210938 9.332031 13.421875 9.640625 13.625 9.949219 C 13.738281 10.125 13.84375 10.304688 13.945312 10.488281 C 13.976562 10.554688 14.015625 10.640625 13.980469 10.714844 C 13.933594 10.789062 13.832031 10.78125 13.75 10.785156 C 13.164062 10.777344 12.582031 10.785156 11.996094 10.804688 C 11.4375 10.828125 10.875 10.859375 10.320312 10.949219 C 10.117188 10.984375 9.914062 11.023438 9.726562 11.109375 C 10.152344 10.375 10.820312 9.808594 11.550781 9.398438 C 11.757812 9.28125 11.96875 9.179688 12.183594 9.074219 Z M 12.183594 9.074219 " fill-opacity="1" fill-rule="nonzero"/><path fill="#ffffff" d="M 25.761719 10.367188 C 27.039062 10.335938 28.316406 10.300781 29.597656 10.242188 C 30.976562 10.195312 32.355469 10.214844 33.730469 10.34375 C 34.921875 10.445312 36.109375 10.574219 37.289062 10.734375 C 37.914062 10.816406 38.539062 10.910156 39.15625 11.035156 C 40.070312 11.214844 40.996094 11.398438 41.851562 11.777344 C 42.109375 11.894531 42.363281 12.023438 42.601562 12.175781 C 42.117188 11.984375 41.617188 11.824219 41.101562 11.726562 C 40.886719 11.679688 40.664062 11.65625 40.445312 11.613281 C 40.195312 11.59375 39.949219 11.617188 39.699219 11.613281 C 38.929688 11.617188 38.15625 11.644531 37.390625 11.75 C 37.292969 11.765625 37.175781 11.785156 37.113281 11.875 C 37.058594 11.960938 37.101562 12.070312 37.140625 12.15625 C 37.40625 12.628906 37.640625 13.117188 37.890625 13.597656 C 38.058594 13.9375 38.234375 14.273438 38.394531 14.617188 C 37.726562 13.539062 36.804688 12.625 35.734375 11.957031 C 35.550781 11.839844 35.363281 11.734375 35.167969 11.640625 C 34.902344 11.519531 34.617188 11.449219 34.332031 11.40625 C 33.78125 11.332031 33.238281 11.214844 32.691406 11.121094 C 30.078125 10.664062 27.429688 10.398438 24.78125 10.394531 C 25.105469 10.371094 25.433594 10.375 25.761719 10.367188 Z M 25.761719 10.367188 " fill-opacity="1" fill-rule="nonzero"/><path fill="#ffffff" d="M 32.277344 11.828125 C 32.691406 11.917969 33.109375 12.070312 33.425781 12.359375 C 33.609375 12.527344 33.746094 12.746094 33.804688 12.988281 C 33.84375 13.148438 33.824219 13.328125 33.726562 13.460938 C 33.609375 13.625 33.421875 13.722656 33.234375 13.78125 C 33.40625 13.648438 33.582031 13.5 33.652344 13.289062 C 33.722656 13.089844 33.65625 12.871094 33.535156 12.707031 C 33.347656 12.449219 33.082031 12.261719 32.8125 12.097656 C 32.640625 11.996094 32.460938 11.90625 32.277344 11.828125 Z M 32.277344 11.828125 " fill-opacity="1" fill-rule="nonzero"/><path fill="#ffffff" d="M 40.230469 11.828125 C 40.347656 11.8125 40.460938 11.808594 40.578125 11.820312 C 41.125 11.933594 41.675781 12.027344 42.207031 12.203125 C 42.363281 12.253906 42.515625 12.320312 42.644531 12.425781 C 42.8125 12.558594 42.921875 12.757812 42.988281 12.960938 C 43.113281 13.324219 43.242188 13.683594 43.328125 14.058594 C 43.363281 14.21875 43.40625 14.398438 43.324219 14.550781 C 43.277344 14.648438 43.164062 14.695312 43.058594 14.6875 C 42.015625 14.609375 40.972656 14.566406 39.925781 14.550781 C 39.660156 14.539062 39.382812 14.578125 39.125 14.488281 C 38.835938 14.386719 38.621094 14.144531 38.453125 13.898438 C 38.171875 13.484375 37.921875 13.054688 37.691406 12.617188 C 37.621094 12.46875 37.550781 12.296875 37.59375 12.128906 C 37.625 12.007812 37.757812 11.953125 37.871094 11.945312 C 38.65625 11.867188 39.445312 11.867188 40.230469 11.828125 Z M 40.230469 11.828125 " fill-opacity="1" fill-rule="nonzero"/><path fill="#ffffff" d="M 31.632812 11.855469 C 32.039062 11.824219 32.425781 12.007812 32.769531 12.214844 C 32.984375 12.347656 33.199219 12.507812 33.34375 12.722656 C 33.464844 12.894531 33.527344 13.117188 33.488281 13.328125 C 33.433594 13.515625 33.261719 13.648438 33.078125 13.703125 C 32.84375 13.773438 32.597656 13.761719 32.359375 13.71875 C 31.800781 13.609375 31.316406 13.199219 31.089844 12.675781 C 31.019531 12.515625 31.011719 12.320312 31.125 12.179688 C 31.25 12.019531 31.421875 11.875 31.632812 11.855469 Z M 31.632812 11.855469 " fill-opacity="1" fill-rule="nonzero"/><path fill="#ffffff" d="M 34.296875 11.867188 C 34.699219 11.796875 35.105469 11.957031 35.433594 12.1875 C 35.644531 12.332031 35.828125 12.507812 36 12.699219 C 36.160156 12.863281 36.261719 13.074219 36.316406 13.292969 C 36.355469 13.472656 36.355469 13.675781 36.242188 13.824219 C 36.105469 14 35.871094 14.054688 35.664062 14.050781 C 35.105469 13.996094 34.574219 13.691406 34.246094 13.230469 C 34.125 13.066406 34.027344 12.882812 33.953125 12.691406 C 33.894531 12.515625 33.878906 12.316406 33.953125 12.144531 C 34.011719 12 34.144531 11.894531 34.296875 11.867188 Z M 34.296875 11.867188 " fill-opacity="1" fill-rule="nonzero"/><path fill="#ffffff" d="M 35.234375 11.929688 C 35.589844 12.125 35.945312 12.328125 36.253906 12.601562 C 36.40625 12.742188 36.554688 12.898438 36.636719 13.097656 C 36.699219 13.242188 36.707031 13.417969 36.632812 13.5625 C 36.578125 13.683594 36.480469 13.773438 36.378906 13.851562 C 36.484375 13.660156 36.507812 13.425781 36.441406 13.21875 C 36.332031 12.882812 36.089844 12.617188 35.835938 12.386719 C 35.652344 12.214844 35.441406 12.074219 35.234375 11.929688 Z M 35.234375 11.929688 " fill-opacity="1" fill-rule="nonzero"/><path fill="#ffffff" d="M 43.09375 12.691406 C 43.105469 12.6875 43.125 12.675781 43.136719 12.671875 C 43.234375 12.691406 43.308594 12.769531 43.382812 12.835938 C 43.589844 13.058594 43.730469 13.332031 43.851562 13.605469 C 43.933594 13.800781 44.023438 13.992188 44.050781 14.203125 C 44.0625 14.292969 44.070312 14.398438 44.003906 14.46875 C 43.960938 14.496094 43.917969 14.464844 43.886719 14.4375 C 43.617188 14.167969 43.484375 13.800781 43.3125 13.46875 C 43.222656 13.277344 43.128906 13.082031 43.078125 12.875 C 43.070312 12.816406 43.050781 12.742188 43.09375 12.691406 Z M 43.09375 12.691406 " fill-opacity="1" fill-rule="nonzero"/><path fill="#ffffff" d="M 25.074219 13.351562 C 25.523438 13.269531 26.003906 13.273438 26.4375 13.445312 C 26.816406 13.589844 27.144531 13.851562 27.398438 14.171875 C 27.710938 14.566406 27.921875 15.039062 28.0625 15.523438 C 28.210938 16.058594 28.285156 16.613281 28.277344 17.167969 C 28.25 17.664062 28.183594 18.15625 28.054688 18.636719 C 27.933594 19.082031 27.75 19.519531 27.472656 19.894531 C 27.226562 20.222656 26.898438 20.492188 26.519531 20.652344 C 26.09375 20.835938 25.613281 20.878906 25.15625 20.820312 C 25.554688 20.78125 25.949219 20.648438 26.273438 20.40625 C 26.640625 20.132812 26.902344 19.738281 27.082031 19.320312 C 27.316406 18.777344 27.433594 18.1875 27.503906 17.601562 C 27.578125 17.03125 27.566406 16.453125 27.496094 15.882812 C 27.433594 15.410156 27.320312 14.941406 27.101562 14.515625 C 26.917969 14.152344 26.644531 13.828125 26.289062 13.621094 C 25.925781 13.398438 25.492188 13.324219 25.074219 13.351562 Z M 25.074219 13.351562 " fill-opacity="1" fill-rule="nonzero"/><path fill="#ffffff" d="M 9.964844 14.625 C 10.175781 14.988281 10.398438 15.347656 10.695312 15.648438 C 10.867188 15.820312 11.066406 15.964844 11.292969 16.054688 C 11.53125 16.148438 11.792969 16.171875 12.042969 16.191406 C 15.121094 16.382812 18.195312 16.558594 21.269531 16.738281 C 21.457031 16.757812 21.648438 16.746094 21.832031 16.78125 C 20.375 16.746094 18.917969 16.734375 17.460938 16.707031 C 15.589844 16.679688 13.71875 16.648438 11.847656 16.621094 C 11.605469 16.609375 11.355469 16.632812 11.117188 16.582031 C 10.761719 16.5 10.480469 16.199219 10.371094 15.855469 C 10.238281 15.441406 10.09375 15.035156 9.964844 14.625 Z M 9.964844 14.625 " fill-opacity="1" fill-rule="nonzero"/><path fill="#ffffff" d="M 12.171875 17.195312 C 12.28125 17.183594 12.386719 17.15625 12.496094 17.160156 C 14.527344 17.238281 16.558594 17.3125 18.589844 17.375 C 19.324219 17.394531 20.0625 17.417969 20.796875 17.421875 C 20.878906 17.421875 20.960938 17.429688 21.042969 17.441406 C 20.75 17.433594 20.460938 17.464844 20.167969 17.46875 C 18.324219 17.546875 16.476562 17.550781 14.628906 17.542969 C 13.171875 17.535156 11.714844 17.507812 10.261719 17.472656 C 10.898438 17.375 11.535156 17.289062 12.171875 17.195312 Z M 12.171875 17.195312 " fill-opacity="1" fill-rule="nonzero"/><g clip-path="url(#b3df6ab23b)"><path fill="#ffffff" d="M 29.238281 17.421875 C 29.257812 17.378906 29.304688 17.386719 29.34375 17.386719 C 30.433594 17.4375 31.523438 17.488281 32.613281 17.460938 C 32.785156 17.800781 33.078125 18.078125 33.433594 18.210938 C 33.664062 18.300781 33.914062 18.335938 34.160156 18.324219 C 36.128906 18.449219 38.101562 18.554688 40.074219 18.527344 C 40.777344 18.5 41.480469 18.457031 42.179688 18.390625 C 42.726562 18.335938 43.269531 18.273438 43.804688 18.15625 C 44.035156 18.105469 44.265625 18.050781 44.484375 17.957031 C 44.597656 17.90625 44.71875 17.847656 44.789062 17.738281 C 44.898438 17.886719 44.949219 18.066406 45.003906 18.242188 C 45.050781 18.410156 45.019531 18.597656 44.90625 18.730469 C 44.742188 18.921875 44.5 19.019531 44.269531 19.097656 C 43.785156 19.253906 43.28125 19.320312 42.777344 19.382812 C 41.472656 19.519531 40.160156 19.558594 38.851562 19.605469 C 36.140625 19.695312 33.425781 19.613281 30.722656 19.382812 C 30.289062 19.339844 29.851562 19.300781 29.417969 19.25 C 29.386719 19.238281 29.328125 19.246094 29.324219 19.199219 C 29.324219 18.605469 29.292969 18.011719 29.238281 17.421875 Z M 29.238281 17.421875 " fill-opacity="1" fill-rule="nonzero"/></g><g clip-path="url(#f682618dff)"><path fill="#ffffff" d="M 27.339844 20.386719 C 28.074219 19.746094 28.449219 18.761719 28.492188 17.800781 C 28.558594 18.066406 28.554688 18.34375 28.570312 18.613281 C 28.582031 18.976562 28.59375 19.339844 28.570312 19.703125 C 28.585938 19.777344 28.679688 19.796875 28.742188 19.8125 C 29.054688 19.859375 29.371094 19.855469 29.6875 19.878906 C 29.597656 20.03125 29.464844 20.144531 29.34375 20.265625 C 29.15625 20.449219 28.960938 20.621094 28.761719 20.789062 C 28.53125 20.976562 28.21875 20.964844 27.941406 21 C 27.34375 21.042969 26.742188 21.085938 26.144531 21.03125 C 26.582031 20.902344 26.996094 20.6875 27.339844 20.386719 Z M 27.339844 20.386719 " fill-opacity="1" fill-rule="nonzero"/></g><path fill="#ffffff" d="M 5.550781 18.296875 C 6.101562 18.339844 6.652344 18.410156 7.207031 18.464844 C 9.761719 18.722656 12.320312 18.972656 14.878906 19.199219 C 16.589844 19.347656 18.304688 19.488281 20.019531 19.589844 C 20.441406 19.605469 20.859375 19.636719 21.28125 19.640625 C 20.601562 19.652344 19.921875 19.632812 19.242188 19.625 C 17.519531 19.613281 15.796875 19.597656 14.078125 19.589844 C 13.953125 19.589844 13.828125 19.59375 13.707031 19.585938 C 10.988281 19.160156 8.269531 18.722656 5.550781 18.296875 Z M 5.550781 18.296875 " fill-opacity="1" fill-rule="nonzero"/><g clip-path="url(#fae3b5e0f9)"><path fill="#ffffff" d="M 40.328125 20.019531 C 40.859375 20.003906 41.390625 19.980469 41.921875 19.933594 C 41.832031 20.101562 41.675781 20.222656 41.535156 20.34375 C 40.871094 20.863281 40.066406 21.214844 39.222656 21.261719 C 38.6875 21.292969 38.144531 21.1875 37.65625 20.953125 C 37.1875 20.734375 36.773438 20.410156 36.414062 20.035156 C 37.71875 20.050781 39.023438 20.054688 40.328125 20.019531 Z M 40.328125 20.019531 " fill-opacity="1" fill-rule="nonzero"/></g><g fill="#ffffff" fill-opacity="1"><g transform="translate(0.421798, 29.723522)"><g><path d="M 0.765625 0.046875 C 0.546875 0.046875 0.4375 -0.0664062 0.4375 -0.296875 L 0.4375 -3.65625 C 0.4375 -3.769531 0.460938 -3.859375 0.515625 -3.921875 C 0.578125 -3.984375 0.65625 -4.015625 0.75 -4.015625 C 0.832031 -4.015625 0.894531 -4 0.9375 -3.96875 C 0.988281 -3.9375 1.039062 -3.882812 1.09375 -3.8125 L 3.109375 -1.203125 L 3.109375 -3.671875 C 3.109375 -3.898438 3.222656 -4.015625 3.453125 -4.015625 C 3.671875 -4.015625 3.78125 -3.898438 3.78125 -3.671875 L 3.78125 -0.296875 C 3.78125 -0.191406 3.753906 -0.109375 3.703125 -0.046875 C 3.648438 0.015625 3.578125 0.046875 3.484375 0.046875 C 3.398438 0.046875 3.332031 0.03125 3.28125 0 C 3.226562 -0.0390625 3.175781 -0.0976562 3.125 -0.171875 L 1.109375 -2.78125 L 1.109375 -0.296875 C 1.109375 -0.0664062 0.992188 0.046875 0.765625 0.046875 Z M 0.765625 0.046875 "/></g></g></g><g fill="#ffffff" fill-opacity="1"><g transform="translate(5.470186, 29.723522)"><g><path d="M 2.34375 0.0625 C 1.90625 0.0625 1.535156 -0.0195312 1.234375 -0.1875 C 0.929688 -0.351562 0.695312 -0.585938 0.53125 -0.890625 C 0.375 -1.203125 0.296875 -1.566406 0.296875 -1.984375 C 0.296875 -2.398438 0.378906 -2.757812 0.546875 -3.0625 C 0.710938 -3.375 0.945312 -3.613281 1.25 -3.78125 C 1.550781 -3.945312 1.914062 -4.03125 2.34375 -4.03125 C 2.550781 -4.03125 2.757812 -4.003906 2.96875 -3.953125 C 3.1875 -3.898438 3.390625 -3.816406 3.578125 -3.703125 C 3.660156 -3.648438 3.707031 -3.582031 3.71875 -3.5 C 3.726562 -3.425781 3.710938 -3.351562 3.671875 -3.28125 C 3.640625 -3.207031 3.585938 -3.15625 3.515625 -3.125 C 3.441406 -3.09375 3.359375 -3.109375 3.265625 -3.171875 C 3.117188 -3.242188 2.972656 -3.300781 2.828125 -3.34375 C 2.679688 -3.382812 2.519531 -3.40625 2.34375 -3.40625 C 1.914062 -3.40625 1.59375 -3.28125 1.375 -3.03125 C 1.164062 -2.789062 1.0625 -2.441406 1.0625 -1.984375 C 1.0625 -1.515625 1.171875 -1.160156 1.390625 -0.921875 C 1.609375 -0.679688 1.9375 -0.5625 2.375 -0.5625 C 2.5 -0.5625 2.625 -0.570312 2.75 -0.59375 C 2.882812 -0.613281 3.015625 -0.644531 3.140625 -0.6875 L 3.140625 -1.609375 L 2.53125 -1.609375 C 2.332031 -1.609375 2.234375 -1.703125 2.234375 -1.890625 C 2.234375 -2.066406 2.332031 -2.15625 2.53125 -2.15625 L 3.453125 -2.15625 C 3.648438 -2.15625 3.75 -2.054688 3.75 -1.859375 L 3.75 -0.484375 C 3.75 -0.304688 3.679688 -0.195312 3.546875 -0.15625 C 3.378906 -0.09375 3.1875 -0.0390625 2.96875 0 C 2.757812 0.0390625 2.550781 0.0625 2.34375 0.0625 Z M 2.34375 0.0625 "/></g></g></g><g fill="#ffffff" fill-opacity="1"><g transform="translate(10.450966, 29.723522)"><g><path d="M 2.21875 0.0625 C 1.832031 0.0625 1.492188 -0.0195312 1.203125 -0.1875 C 0.921875 -0.363281 0.695312 -0.601562 0.53125 -0.90625 C 0.375 -1.21875 0.296875 -1.578125 0.296875 -1.984375 C 0.296875 -2.410156 0.375 -2.773438 0.53125 -3.078125 C 0.695312 -3.378906 0.921875 -3.613281 1.203125 -3.78125 C 1.492188 -3.945312 1.832031 -4.03125 2.21875 -4.03125 C 2.601562 -4.03125 2.9375 -3.945312 3.21875 -3.78125 C 3.507812 -3.613281 3.734375 -3.378906 3.890625 -3.078125 C 4.046875 -2.773438 4.125 -2.414062 4.125 -2 C 4.125 -1.582031 4.046875 -1.21875 3.890625 -0.90625 C 3.734375 -0.601562 3.507812 -0.363281 3.21875 -0.1875 C 2.9375 -0.0195312 2.601562 0.0625 2.21875 0.0625 Z M 2.21875 -0.5625 C 2.582031 -0.5625 2.863281 -0.6875 3.0625 -0.9375 C 3.269531 -1.1875 3.375 -1.535156 3.375 -1.984375 C 3.375 -2.441406 3.269531 -2.789062 3.0625 -3.03125 C 2.863281 -3.28125 2.582031 -3.40625 2.21875 -3.40625 C 1.851562 -3.40625 1.566406 -3.28125 1.359375 -3.03125 C 1.160156 -2.789062 1.0625 -2.441406 1.0625 -1.984375 C 1.0625 -1.535156 1.160156 -1.1875 1.359375 -0.9375 C 1.566406 -0.6875 1.851562 -0.5625 2.21875 -0.5625 Z M 2.21875 -0.5625 "/></g></g></g><g fill="#ffffff" fill-opacity="1"><g transform="translate(15.707815, 29.723522)"><g><path d="M 2.28125 0.0625 C 1.863281 0.0625 1.507812 -0.0195312 1.21875 -0.1875 C 0.925781 -0.363281 0.695312 -0.601562 0.53125 -0.90625 C 0.375 -1.207031 0.296875 -1.566406 0.296875 -1.984375 C 0.296875 -2.410156 0.375 -2.773438 0.53125 -3.078125 C 0.695312 -3.378906 0.925781 -3.613281 1.21875 -3.78125 C 1.507812 -3.945312 1.863281 -4.03125 2.28125 -4.03125 C 2.488281 -4.03125 2.691406 -4.003906 2.890625 -3.953125 C 3.085938 -3.898438 3.265625 -3.828125 3.421875 -3.734375 C 3.515625 -3.660156 3.570312 -3.582031 3.59375 -3.5 C 3.613281 -3.414062 3.601562 -3.332031 3.5625 -3.25 C 3.519531 -3.175781 3.457031 -3.128906 3.375 -3.109375 C 3.289062 -3.085938 3.195312 -3.109375 3.09375 -3.171875 C 2.976562 -3.242188 2.851562 -3.296875 2.71875 -3.328125 C 2.582031 -3.367188 2.445312 -3.390625 2.3125 -3.390625 C 1.90625 -3.390625 1.597656 -3.265625 1.390625 -3.015625 C 1.179688 -2.773438 1.078125 -2.429688 1.078125 -1.984375 C 1.078125 -1.535156 1.179688 -1.191406 1.390625 -0.953125 C 1.597656 -0.710938 1.90625 -0.59375 2.3125 -0.59375 C 2.445312 -0.59375 2.582031 -0.609375 2.71875 -0.640625 C 2.863281 -0.671875 3 -0.726562 3.125 -0.8125 C 3.226562 -0.875 3.316406 -0.890625 3.390625 -0.859375 C 3.472656 -0.835938 3.53125 -0.789062 3.5625 -0.71875 C 3.601562 -0.65625 3.617188 -0.582031 3.609375 -0.5 C 3.597656 -0.414062 3.546875 -0.34375 3.453125 -0.28125 C 3.304688 -0.175781 3.128906 -0.09375 2.921875 -0.03125 C 2.710938 0.03125 2.5 0.0625 2.28125 0.0625 Z M 2.28125 0.0625 "/></g></g></g><g fill="#ffffff" fill-opacity="1"><g transform="translate(20.373085, 29.723522)"><g/></g></g><g fill="#ffffff" fill-opacity="1"><g transform="translate(22.734018, 29.723522)"><g><path d="M 1.75 0.046875 C 1.507812 0.046875 1.390625 -0.078125 1.390625 -0.328125 L 1.390625 -3.375 L 0.296875 -3.375 C 0.0859375 -3.375 -0.015625 -3.472656 -0.015625 -3.671875 C -0.015625 -3.867188 0.0859375 -3.96875 0.296875 -3.96875 L 3.21875 -3.96875 C 3.425781 -3.96875 3.53125 -3.867188 3.53125 -3.671875 C 3.53125 -3.472656 3.425781 -3.375 3.21875 -3.375 L 2.109375 -3.375 L 2.109375 -0.328125 C 2.109375 -0.078125 1.988281 0.046875 1.75 0.046875 Z M 1.75 0.046875 "/></g></g></g><g fill="#ffffff" fill-opacity="1"><g transform="translate(27.066879, 29.723522)"><g><path d="M 0.796875 0.046875 C 0.554688 0.046875 0.4375 -0.078125 0.4375 -0.328125 L 0.4375 -3.65625 C 0.4375 -3.894531 0.554688 -4.015625 0.796875 -4.015625 C 1.035156 -4.015625 1.15625 -3.894531 1.15625 -3.65625 L 1.15625 -2.3125 L 3.203125 -2.3125 L 3.203125 -3.65625 C 3.203125 -3.894531 3.320312 -4.015625 3.5625 -4.015625 C 3.800781 -4.015625 3.921875 -3.894531 3.921875 -3.65625 L 3.921875 -0.328125 C 3.921875 -0.078125 3.800781 0.046875 3.5625 0.046875 C 3.320312 0.046875 3.203125 -0.078125 3.203125 -0.328125 L 3.203125 -1.71875 L 1.15625 -1.71875 L 1.15625 -0.328125 C 1.15625 -0.078125 1.035156 0.046875 0.796875 0.046875 Z M 0.796875 0.046875 "/></g></g></g><g fill="#ffffff" fill-opacity="1"><g transform="translate(32.256119, 29.723522)"><g><path d="M 2.21875 0.0625 C 1.832031 0.0625 1.492188 -0.0195312 1.203125 -0.1875 C 0.921875 -0.363281 0.695312 -0.601562 0.53125 -0.90625 C 0.375 -1.21875 0.296875 -1.578125 0.296875 -1.984375 C 0.296875 -2.410156 0.375 -2.773438 0.53125 -3.078125 C 0.695312 -3.378906 0.921875 -3.613281 1.203125 -3.78125 C 1.492188 -3.945312 1.832031 -4.03125 2.21875 -4.03125 C 2.601562 -4.03125 2.9375 -3.945312 3.21875 -3.78125 C 3.507812 -3.613281 3.734375 -3.378906 3.890625 -3.078125 C 4.046875 -2.773438 4.125 -2.414062 4.125 -2 C 4.125 -1.582031 4.046875 -1.21875 3.890625 -0.90625 C 3.734375 -0.601562 3.507812 -0.363281 3.21875 -0.1875 C 2.9375 -0.0195312 2.601562 0.0625 2.21875 0.0625 Z M 2.21875 -0.5625 C 2.582031 -0.5625 2.863281 -0.6875 3.0625 -0.9375 C 3.269531 -1.1875 3.375 -1.535156 3.375 -1.984375 C 3.375 -2.441406 3.269531 -2.789062 3.0625 -3.03125 C 2.863281 -3.28125 2.582031 -3.40625 2.21875 -3.40625 C 1.851562 -3.40625 1.566406 -3.28125 1.359375 -3.03125 C 1.160156 -2.789062 1.0625 -2.441406 1.0625 -1.984375 C 1.0625 -1.535156 1.160156 -1.1875 1.359375 -0.9375 C 1.566406 -0.6875 1.851562 -0.5625 2.21875 -0.5625 Z M 2.21875 -0.5625 "/></g></g></g><g fill="#ffffff" fill-opacity="1"><g transform="translate(37.512969, 29.723522)"><g><path d="M 0.765625 0.046875 C 0.546875 0.046875 0.4375 -0.0664062 0.4375 -0.296875 L 0.4375 -3.65625 C 0.4375 -3.769531 0.460938 -3.859375 0.515625 -3.921875 C 0.578125 -3.984375 0.65625 -4.015625 0.75 -4.015625 C 0.832031 -4.015625 0.894531 -4 0.9375 -3.96875 C 0.988281 -3.9375 1.039062 -3.882812 1.09375 -3.8125 L 3.109375 -1.203125 L 3.109375 -3.671875 C 3.109375 -3.898438 3.222656 -4.015625 3.453125 -4.015625 C 3.671875 -4.015625 3.78125 -3.898438 3.78125 -3.671875 L 3.78125 -0.296875 C 3.78125 -0.191406 3.753906 -0.109375 3.703125 -0.046875 C 3.648438 0.015625 3.578125 0.046875 3.484375 0.046875 C 3.398438 0.046875 3.332031 0.03125 3.28125 0 C 3.226562 -0.0390625 3.175781 -0.0976562 3.125 -0.171875 L 1.109375 -2.78125 L 1.109375 -0.296875 C 1.109375 -0.0664062 0.992188 0.046875 0.765625 0.046875 Z M 0.765625 0.046875 "/></g></g></g><g clip-path="url(#7f6a23a308)"><g fill="#ffffff" fill-opacity="1"><g transform="translate(42.561354, 29.723522)"><g><path d="M 2.34375 0.0625 C 1.90625 0.0625 1.535156 -0.0195312 1.234375 -0.1875 C 0.929688 -0.351562 0.695312 -0.585938 0.53125 -0.890625 C 0.375 -1.203125 0.296875 -1.566406 0.296875 -1.984375 C 0.296875 -2.398438 0.378906 -2.757812 0.546875 -3.0625 C 0.710938 -3.375 0.945312 -3.613281 1.25 -3.78125 C 1.550781 -3.945312 1.914062 -4.03125 2.34375 -4.03125 C 2.550781 -4.03125 2.757812 -4.003906 2.96875 -3.953125 C 3.1875 -3.898438 3.390625 -3.816406 3.578125 -3.703125 C 3.660156 -3.648438 3.707031 -3.582031 3.71875 -3.5 C 3.726562 -3.425781 3.710938 -3.351562 3.671875 -3.28125 C 3.640625 -3.207031 3.585938 -3.15625 3.515625 -3.125 C 3.441406 -3.09375 3.359375 -3.109375 3.265625 -3.171875 C 3.117188 -3.242188 2.972656 -3.300781 2.828125 -3.34375 C 2.679688 -3.382812 2.519531 -3.40625 2.34375 -3.40625 C 1.914062 -3.40625 1.59375 -3.28125 1.375 -3.03125 C 1.164062 -2.789062 1.0625 -2.441406 1.0625 -1.984375 C 1.0625 -1.515625 1.171875 -1.160156 1.390625 -0.921875 C 1.609375 -0.679688 1.9375 -0.5625 2.375 -0.5625 C 2.5 -0.5625 2.625 -0.570312 2.75 -0.59375 C 2.882812 -0.613281 3.015625 -0.644531 3.140625 -0.6875 L 3.140625 -1.609375 L 2.53125 -1.609375 C 2.332031 -1.609375 2.234375 -1.703125 2.234375 -1.890625 C 2.234375 -2.066406 2.332031 -2.15625 2.53125 -2.15625 L 3.453125 -2.15625 C 3.648438 -2.15625 3.75 -2.054688 3.75 -1.859375 L 3.75 -0.484375 C 3.75 -0.304688 3.679688 -0.195312 3.546875 -0.15625 C 3.378906 -0.09375 3.1875 -0.0390625 2.96875 0 C 2.757812 0.0390625 2.550781 0.0625 2.34375 0.0625 Z M 2.34375 0.0625 "/></g></g></g></g><g fill="#ffffff" fill-opacity="1"><g transform="translate(23.981787, 37.526895)"><g/></g></g></svg>